<svg xmlns="http://www.w3.org/2000/svg" viewBox="0 0 100 100">
  <!-- Pano base -->
  <path d="M 20 20 L 80 25 L 75 80 L 15 75 Z" fill="#2E6B4A" stroke="#1A1814" stroke-width="4" stroke-linejoin="round"/>

  <!-- Franjas superior -->
  <line x1="22" y1="20" x2="20" y2="15" stroke="#1A1814" stroke-width="2"/>
  <line x1="32" y1="21" x2="30" y2="16" stroke="#1A1814" stroke-width="2"/>
  <line x1="42" y1="22" x2="40" y2="17" stroke="#1A1814" stroke-width="2"/>
  <line x1="52" y1="23" x2="50" y2="18" stroke="#1A1814" stroke-width="2"/>
  <line x1="62" y1="24" x2="60" y2="19" stroke="#1A1814" stroke-width="2"/>
  <line x1="72" y1="25" x2="70" y2="20" stroke="#1A1814" stroke-width="2"/>

  <!-- Franjas inferior -->
  <line x1="18" y1="75" x2="15" y2="80" stroke="#1A1814" stroke-width="2"/>
  <line x1="28" y1="76" x2="25" y2="81" stroke="#1A1814" stroke-width="2"/>
  <line x1="38" y1="77" x2="35" y2="82" stroke="#1A1814" stroke-width="2"/>
  <line x1="48" y1="78" x2="45" y2="83" stroke="#1A1814" stroke-width="2"/>
  <line x1="58" y1="79" x2="55" y2="84" stroke="#1A1814" stroke-width="2"/>
  <line x1="68" y1="80" x2="65" y2="85" stroke="#1A1814" stroke-width="2"/>

  <!-- Motivos tropicais geométricos no tecido -->
  <circle cx="35" cy="40" r="8" fill="#D9A441" />
  <circle cx="60" cy="55" r="10" fill="#C8472E" />
  <path d="M 45 65 L 55 70 L 45 75 Z" fill="#FBF8F1" />
  <path d="M 55 35 L 65 30 L 60 40 Z" fill="#FBF8F1" />
  <circle cx="30" cy="60" r="5" fill="#1B2B4B" />
</svg>
