<svg xmlns="http://www.w3.org/2000/svg" viewBox="0 0 100 100">
  <path d="M75 10 L75 35 A 15 15 0 0 0 60 50 L40 50 A 25 25 0 0 1 15 75 L15 80 A 10 10 0 0 0 35 80 L35 75 A 15 15 0 0 0 50 60 L70 60 A 25 25 0 0 0 95 35 L95 10 Z" fill="#F5F1E8" stroke="#1A1814" stroke-width="4" stroke-linejoin="round"/>
  <!-- Cabeça redonda -->
  <circle cx="25" cy="80" r="20" fill="#F5F1E8" stroke="#1A1814" stroke-width="4"/>
  <line x1="15" y1="90" x2="15" y2="95" stroke="#1A1814" stroke-width="2" stroke-linecap="round"/>
  <line x1="25" y1="92" x2="25" y2="97" stroke="#1A1814" stroke-width="2" stroke-linecap="round"/>
  <line x1="35" y1="90" x2="35" y2="95" stroke="#1A1814" stroke-width="2" stroke-linecap="round"/>
  <line x1="20" y1="88" x2="20" y2="93" stroke="#1A1814" stroke-width="2" stroke-linecap="round"/>
  <line x1="30" y1="88" x2="30" y2="93" stroke="#1A1814" stroke-width="2" stroke-linecap="round"/>
  <!-- Corpo cilíndrico do aquecedor (botão lateral) -->
  <rect x="75" y="15" width="8" height="20" fill="#F5F1E8" stroke="#1A1814" stroke-width="4" rx="2"/>
</svg>
