<svg xmlns="http://www.w3.org/2000/svg" viewBox="0 0 100 100">
  <!-- Corpo -->
  <path d="M15 45 C 15 30, 20 25, 30 25 L 80 25 C 85 25, 90 30, 90 45 L 90 70 L 15 70 Z" fill="#FBF8F1" stroke="#1A1814" stroke-width="4" stroke-linejoin="round"/>
  <!-- Base verde inferior -->
  <path d="M15 70 L 90 70 L 90 80 C 90 85, 85 85, 80 85 L 20 85 C 15 85, 15 85, 15 80 Z" fill="#2E6B4A" stroke="#1A1814" stroke-width="4" stroke-linejoin="round"/>

  <!-- Janelas -->
  <rect x="25" y="32" width="25" height="15" rx="2" fill="#1A1814" />
  <rect x="55" y="32" width="25" height="15" rx="2" fill="#1A1814" />

  <!-- Porta lateral linha -->
  <line x1="52" y1="25" x2="52" y2="85" stroke="#1A1814" stroke-width="2"/>

  <!-- Roda traseira -->
  <circle cx="30" cy="85" r="10" fill="#1A1814" />
  <circle cx="30" cy="85" r="4" fill="#B8B0A0" />

  <!-- Roda dianteira -->
  <circle cx="75" cy="85" r="10" fill="#1A1814" />
  <circle cx="75" cy="85" r="4" fill="#B8B0A0" />

  <!-- Farol lateral -->
  <path d="M90 55 C 93 55, 95 53, 95 50 C 95 47, 93 45, 90 45" fill="#FBF8F1" stroke="#1A1814" stroke-width="2"/>

  <!-- Detalhe da frente -->
  <line x1="80" y1="55" x2="90" y2="55" stroke="#1A1814" stroke-width="2"/>
</svg>
