<svg xmlns="http://www.w3.org/2000/svg" viewBox="0 0 100 100">
  <!-- Alças -->
  <path d="M 40 40 L 40 20 C 40 10, 60 10, 60 20 L 60 40" fill="none" stroke="#1A1814" stroke-width="4" stroke-linecap="round"/>

  <!-- Base da sacola (Fundo) -->
  <rect x="25" y="40" width="50" height="45" fill="#FBF8F1" stroke="#1A1814" stroke-width="4" rx="2"/>

  <!-- Listras Verticais -->
  <rect x="30" y="42" width="6" height="41" fill="#C8472E" />
  <rect x="42" y="42" width="6" height="41" fill="#1B2B4B" />
  <rect x="54" y="42" width="6" height="41" fill="#C8472E" />
  <rect x="66" y="42" width="6" height="41" fill="#1B2B4B" />

  <!-- Bordas das listras -->
  <line x1="30" y1="42" x2="30" y2="83" stroke="#1A1814" stroke-width="1"/>
  <line x1="36" y1="42" x2="36" y2="83" stroke="#1A1814" stroke-width="1"/>
  <line x1="42" y1="42" x2="42" y2="83" stroke="#1A1814" stroke-width="1"/>
  <line x1="48" y1="42" x2="48" y2="83" stroke="#1A1814" stroke-width="1"/>
  <line x1="54" y1="42" x2="54" y2="83" stroke="#1A1814" stroke-width="1"/>
  <line x1="60" y1="42" x2="60" y2="83" stroke="#1A1814" stroke-width="1"/>
  <line x1="66" y1="42" x2="66" y2="83" stroke="#1A1814" stroke-width="1"/>
  <line x1="72" y1="42" x2="72" y2="83" stroke="#1A1814" stroke-width="1"/>
</svg>
