<svg xmlns="http://www.w3.org/2000/svg" viewBox="0 0 100 100" role="img">
<title>Açaí em tigela</title>
<g transform="translate(0,100) scale(0.4274,-0.4274)" fill="currentColor">
<path d="M810 1939 c-15 -6 -50 -8 -87 -4 -67 7 -119 -4 -163 -35 -14 -10 -44
-21 -68 -25 -52 -8 -242 -184 -242 -224 0 -12 -7 -33 -16 -47 -12 -17 -15 -38
-12 -68 l5 -43 -55 -17 c-71 -23 -135 -82 -156 -143 -28 -81 -22 -306 9 -390
160 -426 678 -670 1159 -547 334 85 648 430 554 609 -10 19 -13 37 -7 50 4 11
8 39 8 62 1 23 6 45 11 48 14 9 12 69 -4 107 -25 60 -38 103 -41 128 -1 14 -3
33 -3 43 -1 10 -25 41 -52 70 -28 29 -91 100 -141 160 -93 110 -161 167 -199
167 -12 0 -34 8 -48 18 -47 31 -105 46 -182 48 -54 0 -84 6 -102 18 -33 21
-133 30 -168 15z"/>
</g>
</svg>
