<svg xmlns="http://www.w3.org/2000/svg" viewBox="0 0 100 100">
<g transform="translate(0,100) scale(0.4274,-0.4274)" fill="currentColor">
<path d="M0 1531 c0 -14 13 -27 40 -41 22 -11 40 -22 40 -23 0 -2 -18 -57 -40
-122 -33 -98 -40 -133 -40 -197 0 -43 2 -78 5 -78 2 0 38 14 80 30 42 17 77
30 79 30 3 0 28 -38 57 -85 51 -84 66 -102 75 -92 3 2 29 87 60 188 30 101 56
189 58 195 6 15 96 -4 96 -20 0 -6 -14 -97 -32 -203 -18 -105 -30 -195 -26
-198 3 -4 47 19 98 50 50 32 92 55 93 54 16 -27 141 -158 147 -154 4 2 10 33
14 67 4 35 16 123 26 196 11 74 20 135 20 135 0 1 25 0 55 -1 l55 -4 0 -209
c0 -115 3 -209 8 -209 4 0 43 31 87 69 l80 68 80 -68 c44 -37 83 -65 87 -63 5
3 8 97 8 210 l0 204 45 0 c41 0 45 -2 45 -25 0 -23 32 -267 45 -342 5 -28 34
-49 35 -25 0 4 29 38 64 76 l63 70 86 -52 c83 -50 107 -60 107 -44 0 4 -14 88
-30 187 -39 232 -41 211 31 231 56 16 81 35 65 51 -3 4 -57 -6 -119 -21 -442
-108 -933 -94 -1369 38 -95 29 -179 62 -365 143 -8 3 -13 -3 -13 -16z M1795 789 c-468 -277 -1173 -338 -1719 -149 -33 11 -63 20 -68 20 -4
0 -8 -88 -8 -195 l0 -196 29 16 30 15 66 -95 c36 -52 70 -95 74 -95 8 0 111
382 111 409 0 12 80 8 100 -4 3 -2 -3 -101 -14 -219 -11 -119 -17 -218 -14
-221 3 -4 44 20 89 53 46 32 90 62 97 66 9 6 39 -17 92 -68 43 -42 83 -76 88
-76 15 0 19 33 32 244 6 99 13 183 16 188 3 4 30 8 59 8 64 0 54 27 90 -235
15 -104 29 -194 33 -199 3 -5 42 30 86 78 l81 87 98 -56 c53 -31 101 -54 106
-51 4 3 -7 96 -25 208 -19 112 -34 208 -34 214 0 10 62 34 87 34 6 0 41 -90
78 -200 38 -110 73 -200 80 -200 6 0 22 19 35 43 13 23 39 65 57 94 l33 52
105 -36 c57 -21 107 -34 111 -30 4 4 -22 89 -59 189 -91 254 -90 227 -12 267
79 40 115 68 115 87 0 23 -19 15 -125 -47z"/>
</g>
</svg>
