<svg xmlns="http://www.w3.org/2000/svg" viewBox="0 0 100 100">
<g transform="translate(0,100) scale(0.4274,-0.4274)" fill="currentColor">
<path d="M632 2313 l3 -28 115 0 115 0 3 28 3 27 -121 0 -121 0 3 -27z M1093 1991 c-116 -163 -251 -470 -311 -706 -51 -203 -57 -253 -57
-506 l0 -237 -55 -4 c-281 -20 -343 -402 -85 -519 45 -21 166 -26 211 -9 19 8
30 8 38 0 5 -5 32 -10 58 -10 l48 0 -6 44 c-5 34 0 58 20 109 27 68 33 137 17
193 -9 33 -3 95 104 1038 30 268 53 491 51 495 -3 4 6 26 20 50 29 52 30 77 5
91 -28 14 -28 14 -58 -29z m7 -210 c0 -10 -11 -115 -25 -232 -13 -118 -29
-257 -35 -309 -66 -580 -90 -798 -90 -812 0 -13 -14 -4 -47 31 -27 26 -54 50
-61 52 -35 11 -41 421 -8 595 39 214 106 422 193 601 43 87 73 118 73 74z M1416 614 c-21 -21 -26 -5 70 -224 47 -107 104 -239 127 -292 l42
-97 42 -1 c50 0 57 -27 -60 235 -46 105 -101 231 -122 280 -52 123 -64 135
-99 99z M1190 392 c-50 -25 -68 -61 -52 -105 7 -18 12 -73 12 -120 l0 -87 33
-20 c66 -41 144 -38 197 7 30 25 31 27 30 112 0 47 2 98 6 113 19 83 -129 149
-226 100z"/>
</g>
</svg>
