<svg xmlns="http://www.w3.org/2000/svg" viewBox="0 0 100 100" role="img">
<title>Biscoito recheado</title>
<g transform="translate(0,100) scale(0.4274,-0.4274)" fill="currentColor">
<path d="M1030 2033 c-29 -11 -60 -47 -60 -70 0 -13 -6 -23 -14 -23 -24 0 -65
-40 -68 -68 -2 -20 -13 -31 -40 -44 -29 -14 -40 -27 -49 -58 -8 -25 -20 -42
-33 -46 -31 -9 -64 -43 -71 -73 -3 -17 -19 -33 -43 -46 -25 -14 -40 -31 -48
-54 -7 -23 -21 -38 -42 -46 -32 -14 -52 -41 -52 -72 0 -10 -14 -24 -33 -33
-20 -9 -33 -24 -35 -37 -2 -13 -10 -23 -18 -23 -23 0 -54 -38 -54 -65 0 -20
-8 -28 -40 -41 -39 -16 -70 -54 -70 -88 0 -8 -10 -18 -22 -21 -34 -11 -66 -44
-73 -76 -4 -16 -13 -29 -22 -29 -21 0 -73 -55 -73 -77 0 -13 -12 -23 -35 -32
-35 -12 -35 -13 -35 -71 0 -64 12 -80 64 -80 19 0 27 -7 32 -25 9 -37 50 -65
95 -65 34 0 40 -4 52 -32 18 -44 38 -59 87 -65 35 -5 42 -10 47 -35 4 -20 13
-30 32 -35 14 -3 37 -14 50 -25 13 -10 34 -18 47 -18 16 0 28 -10 39 -29 20
-40 52 -61 92 -61 28 0 36 -6 52 -39 22 -42 36 -51 86 -51 27 0 37 -6 53 -34
54 -91 163 -81 188 17 4 17 16 32 30 37 38 15 64 48 64 80 0 24 6 33 28 41 42
16 72 49 72 81 0 22 8 32 40 48 38 19 70 62 70 94 0 9 18 25 40 36 33 17 42
28 51 65 9 35 17 47 35 51 31 8 64 50 64 81 0 18 9 28 34 38 40 17 66 49 66
82 0 17 10 28 34 40 35 16 56 48 56 83 0 13 9 22 25 26 33 8 75 59 75 90 0 14
6 24 14 24 25 0 65 41 71 73 5 24 15 36 37 46 86 38 57 144 -44 157 -39 5 -49
11 -54 30 -9 35 -39 56 -90 62 -40 4 -49 10 -66 39 -25 41 -46 53 -93 53 -30
0 -39 5 -57 36 -22 38 -51 54 -97 54 -21 0 -33 9 -52 38 -20 31 -30 38 -64 40
-26 2 -50 13 -72 33 -19 16 -39 29 -46 29 -6 0 -27 18 -47 40 -35 40 -77 56
-110 43z"/>
</g>
</svg>
