<svg xmlns="http://www.w3.org/2000/svg" viewBox="0 0 100 100">
<g transform="translate(0,100) scale(0.4274,-0.4274)" fill="currentColor">
<path d="M715 1870 c-250 -14 -257 -17 -253 -112 3 -72 7 -78 51 -92 15 -5 17
-20 17 -119 l0 -114 -37 -7 c-102 -17 -214 -100 -254 -189 -22 -48 -24 -68
-30 -292 -3 -132 -9 -250 -13 -261 -5 -13 -3 -24 3 -28 7 -5 11 -75 11 -210 0
-265 14 -315 113 -409 l40 -37 573 0 573 0 46 44 c88 86 99 127 105 381 3 121
9 228 14 238 5 11 4 27 -2 40 -7 14 -13 109 -14 252 -3 216 -4 233 -26 280
-41 89 -117 150 -230 185 l-57 18 -3 83 c-4 108 3 149 27 149 49 0 72 112 34
159 -31 36 -399 58 -688 41z m405 -265 l0 -135 -29 0 c-20 0 -30 6 -34 20 -4
15 -14 20 -36 20 -47 0 -43 35 4 44 32 6 35 10 35 41 0 33 -2 35 -34 35 -32 0
-35 3 -38 33 -3 31 -4 32 -53 32 -48 0 -50 -1 -55 -30 -4 -25 -10 -30 -38 -33
-32 -3 -33 -5 -30 -40 3 -34 6 -37 36 -40 41 -4 48 -42 7 -42 -14 0 -29 -8
-35 -20 -8 -14 -21 -20 -45 -20 l-35 0 0 128 c0 71 3 132 7 135 3 4 89 7 190
7 l183 0 0 -135z"/>
</g>
</svg>
