<svg xmlns="http://www.w3.org/2000/svg" viewBox="0 0 100 100">
<g transform="translate(0,100) scale(0.4274,-0.4274)" fill="currentColor">
<path d="M995 1914 c-37 -20 -73 -33 -81 -30 -21 8 -63 -11 -71 -31 -8 -23
-39 -45 -82 -60 -37 -13 -81 -51 -84 -74 -4 -24 -18 -40 -43 -49 -27 -11 -64
-65 -64 -94 0 -10 -16 -37 -36 -59 -30 -33 -35 -45 -31 -72 4 -21 0 -41 -11
-56 -11 -16 -17 -49 -18 -105 -2 -58 -7 -90 -19 -108 -22 -34 -24 -30 107
-361 121 -306 128 -319 223 -365 122 -60 198 -73 425 -74 221 0 295 12 414 68
102 47 106 55 227 356 140 352 138 343 112 378 -14 19 -19 37 -15 60 2 18 -2
47 -9 64 -7 18 -12 47 -10 65 2 22 -6 49 -24 78 -14 25 -23 50 -20 55 11 18
-23 78 -64 110 -23 18 -41 41 -41 50 0 28 -38 68 -75 80 -22 7 -41 23 -50 41
-16 29 -61 59 -90 59 -9 0 -31 16 -49 36 -29 31 -38 36 -72 33 -21 -1 -56 5
-77 15 -23 10 -59 16 -90 15 -29 -1 -69 2 -90 6 -25 5 -46 4 -61 -5 -17 -9
-29 -9 -44 -1 -16 9 -32 4 -87 -25z"/>
</g>
</svg>
