<svg xmlns="http://www.w3.org/2000/svg" viewBox="0 0 100 100">
<g transform="translate(0,100) scale(0.4274,-0.4274)" fill="currentColor">
<path d="M620 2323 c-103 -17 -170 -66 -170 -125 0 -19 -12 -45 -35 -72 -90
-111 -109 -269 -47 -400 35 -75 39 -101 17 -130 -18 -24 -20 -109 -3 -135 10
-16 5 -32 -29 -100 -23 -44 -45 -100 -48 -125 -8 -51 -21 -57 -52 -24 -25 29
-30 43 -53 153 -26 124 -56 200 -98 247 -31 34 -79 68 -97 68 -3 0 -5 -151 -5
-335 0 -316 1 -338 20 -375 43 -84 116 -144 208 -171 l42 -12 0 -68 c0 -37 -4
-71 -10 -74 -17 -10 -11 -61 9 -87 124 -157 1069 -190 1358 -48 81 40 102 75
80 129 -12 27 -18 105 -25 306 -11 287 -18 332 -70 428 -24 45 -25 50 -12 101
13 54 1 126 -21 126 -19 0 -8 65 23 129 59 122 50 270 -23 370 -19 27 -29 53
-29 77 0 78 -87 124 -271 144 -90 9 -607 12 -659 3z m600 -172 c151 -7 169
-10 214 -34 27 -14 53 -24 57 -21 4 2 20 -22 36 -53 43 -88 41 -200 -6 -302
-24 -53 -31 -82 -27 -103 7 -37 -24 -84 -43 -65 -6 6 -11 20 -11 32 0 54 -123
125 -266 154 -89 18 -100 26 -62 45 39 19 32 75 -12 100 -46 27 -178 29 -227
3 -52 -28 -56 -83 -8 -105 39 -18 30 -29 -30 -36 -156 -18 -297 -92 -303 -158
-3 -40 -32 -76 -32 -40 0 11 -7 25 -15 32 -9 7 -15 29 -15 55 0 25 -11 67 -26
100 -37 80 -42 163 -15 239 20 57 65 128 79 124 4 -1 18 4 32 12 14 7 39 17
55 21 41 10 422 10 625 0z"/>
</g>
</svg>
