<svg xmlns="http://www.w3.org/2000/svg" viewBox="0 0 100 100">
<g transform="translate(0,100) scale(0.4274,-0.4274)" fill="currentColor">
<path d="M415 2315 c203 -96 830 -96 1038 0 l52 23 -570 0 -570 0 50 -23z M705 1805 c-292 -66 -434 -244 -410 -513 11 -133 49 -199 159 -278
45 -33 59 -253 28 -447 -24 -151 -58 -401 -68 -499 l-7 -68 62 0 61 0 -1 503
c0 363 -3 511 -12 535 -8 22 -35 50 -82 85 -79 58 -103 97 -115 185 -44 319
252 535 676 492 303 -31 450 -146 524 -410 34 -124 44 -138 133 -199 98 -66
97 -64 97 -309 0 -300 22 -882 33 -882 7 0 7 76 2 212 -4 117 -10 368 -14 558
-7 400 -1 374 -111 445 -77 49 -88 66 -119 178 -62 227 -170 340 -386 400 -91
26 -359 33 -450 12z M793 1632 c-10 -6 -8 -29 6 -102 27 -132 49 -318 61 -495 5 -82 10
-151 10 -152 0 -2 7 -3 17 -3 14 0 15 15 9 155 -9 193 -41 579 -50 594 -8 13
-35 14 -53 3z M967 1633 c-9 -8 -9 -438 0 -616 5 -116 9 -137 22 -137 14 0 16 31
17 283 0 155 6 320 11 367 9 73 8 87 -5 98 -17 13 -35 16 -45 5z M630 1572 l-22 -18 25 -50 c65 -129 108 -301 127 -504 13 -134 14
-140 32 -122 29 29 -30 440 -89 621 -31 93 -39 101 -73 73z M1126 1528 c-54 -185 -75 -656 -30 -646 11 2 15 40 18 183 4 191 17
278 63 419 21 65 23 80 12 87 -33 20 -48 10 -63 -43z M1306 1471 c-23 -26 -81 -165 -95 -229 -24 -112 -7 -378 28 -440 7
-13 28 -17 88 -19 43 -1 101 -9 128 -16 28 -8 71 -20 97 -28 68 -19 69 -16 71
167 2 185 0 192 -87 248 -65 42 -92 78 -122 166 -46 136 -79 183 -108 151z
m53 -146 c12 -31 21 -62 21 -69 0 -40 63 -134 114 -172 70 -50 76 -65 75 -177
-1 -105 -9 -144 -30 -138 -8 2 -36 9 -64 17 -27 7 -86 15 -130 19 -114 8 -120
22 -120 270 0 271 75 409 134 250z M483 1468 c-36 -46 -44 -171 -15 -228 11 -22 44 -53 92 -86 94 -65
96 -71 105 -280 6 -151 15 -210 28 -194 10 13 -13 380 -27 424 -9 27 -16 58
-16 68 0 48 -126 308 -149 308 -5 0 -13 -6 -18 -12z m87 -158 c29 -58 65 -159
58 -165 -9 -10 -129 79 -144 106 -16 32 -12 93 8 132 14 26 41 0 78 -73z M1345 514 c-60 -7 -201 -13 -312 -13 -278 -1 -264 14 -311 -309 -20
-129 -25 -192 -18 -192 7 0 24 82 43 206 34 214 45 248 89 264 13 5 107 10
209 10 l185 -1 0 -73 c0 -40 3 -148 7 -239 l6 -167 63 0 62 0 7 123 c3 67 9
178 13 247 l7 125 58 9 c65 11 98 -1 116 -40 10 -23 61 -367 61 -417 0 -24 16
-55 24 -47 7 8 -53 459 -64 480 -28 52 -59 57 -245 34z"/>
</g>
</svg>
