<svg xmlns="http://www.w3.org/2000/svg" viewBox="0 0 100 100" role="img">
<title>Caixa d'água</title>
<g transform="translate(0,100) scale(0.4274,-0.4274)" fill="currentColor">
<path d="M763 1630 c-13 -5 -23 -18 -23 -29 0 -22 8 -19 -200 -71 -134 -33
-390 -107 -480 -138 l-55 -19 -3 -119 c-4 -148 12 -276 39 -300 10 -9 19 -27
19 -38 0 -12 9 -68 21 -126 11 -58 20 -123 20 -145 0 -22 7 -47 16 -57 9 -10
26 -75 40 -149 13 -73 28 -140 34 -150 14 -27 11 -36 -16 -43 -13 -3 -29 -16
-36 -27 -14 -26 -3 -88 17 -96 10 -4 14 -22 14 -64 l0 -59 75 0 75 0 0 50 0
50 260 0 260 0 0 -50 0 -50 81 0 82 0 -5 50 -5 50 253 0 254 0 0 -50 0 -50 75
0 75 0 0 58 c0 47 4 59 21 70 37 23 23 93 -23 115 -37 18 -37 18 -23 50 8 18
23 85 34 150 14 81 27 126 41 144 15 19 19 35 15 57 -8 40 40 284 59 305 9 10
23 65 33 124 16 101 19 109 50 133 36 27 46 91 20 125 -30 40 -248 114 -587
199 -163 41 -188 50 -193 70 -3 11 -17 24 -32 30 -32 12 -271 12 -302 0z"/>
</g>
</svg>
