<svg xmlns="http://www.w3.org/2000/svg" viewBox="0 0 100 100">
<g transform="translate(0,100) scale(0.4274,-0.4274)" fill="currentColor">
<path d="M1088 2328 c9 -9 15 -9 24 0 9 9 7 12 -12 12 -19 0 -21 -3 -12 -12z M1300 2331 c0 -16 28 -20 40 -5 10 12 8 14 -14 14 -14 0 -26 -4 -26
-9z M1540 2326 c6 -8 18 -12 26 -9 23 9 16 23 -12 23 -22 0 -24 -2 -14
-14z M1770 2330 c0 -5 9 -10 19 -10 11 0 23 5 26 10 4 6 -5 10 -19 10 -14
0 -26 -4 -26 -10z M2008 2328 c9 -9 15 -9 24 0 9 9 7 12 -12 12 -19 0 -21 -3 -12 -12z M825 1700 c-163 -55 -311 -230 -346 -408 -7 -39 -10 -106 -6 -180 5
-110 15 -167 78 -437 11 -49 22 -101 25 -115 17 -116 85 -501 92 -525 l8 -30
286 -3 285 -2 6 43 c6 42 -4 134 -39 354 -16 106 -16 116 -1 173 34 120 42
248 23 346 -14 74 -15 99 -5 149 18 93 15 308 -5 384 -59 219 -212 314 -401
251z m354 -953 c-16 -70 -23 -50 -14 40 7 70 9 75 16 43 5 -21 4 -54 -2 -83z M1673 1704 c-91 -33 -165 -127 -198 -251 -23 -85 -29 -272 -13 -369
9 -49 11 -92 6 -110 -33 -116 -29 -280 10 -409 18 -59 18 -62 -5 -185 -36
-198 -46 -284 -39 -334 l7 -46 280 0 279 0 11 27 c5 15 34 160 64 322 30 163
63 331 74 374 68 263 88 477 56 597 -71 267 -331 455 -532 384z m-144 -949 c0
-42 -3 -54 -9 -40 -5 11 -9 47 -9 80 0 42 3 54 9 40 5 -11 9 -47 9 -80z"/>
</g>
</svg>
