<svg xmlns="http://www.w3.org/2000/svg" viewBox="0 0 100 100" role="img">
<title>Chuveiro elétrico</title>
<g transform="translate(0,100) scale(0.4274,-0.4274)" fill="currentColor">
<path d="M690 1584 c-46 -20 -77 -50 -103 -99 -33 -61 -34 -538 -1 -581 83
-112 190 -95 342 55 86 85 122 153 122 231 l0 39 80 7 c77 6 80 8 80 31 l0 25
-207 -3 -208 -4 -3 33 c-6 59 36 88 143 97 50 5 93 9 98 11 4 1 9 2 12 3 11 2
-34 77 -62 103 -67 64 -208 89 -293 52z m192 -35 c38 -10 97 -53 88 -63 -3 -2
-26 0 -50 5 -60 14 -104 4 -145 -32 -49 -43 -55 -77 -55 -315 0 -228 -4 -248
-49 -225 -36 20 -43 73 -39 291 3 188 5 209 25 250 39 79 131 116 225 89z M1751 1203 c2 -63 12 -77 59 -85 57 -10 66 0 50 55 -10 38 -17 46
-42 51 -58 11 -68 8 -67 -21z M1425 943 c-170 -11 -376 -62 -419 -104 -31 -29 -13 -32 35 -4 192
106 783 114 999 12 36 -17 70 -33 75 -35 6 -3 1 5 -10 18 -71 82 -380 133
-680 113z M1364 769 c-264 -25 -417 -112 -335 -189 148 -138 950 -129 1054 12
92 124 -293 219 -719 177z m534 -58 c45 -11 99 -30 120 -40 48 -26 37 -26 -20
-1 -151 67 -564 74 -838 15 -14 -3 -8 1 14 10 126 49 555 59 724 16z M1172 387 c-22 -26 -27 -106 -8 -113 23 -9 27 -3 37 53 10 54 -6 88
-29 60z M1355 380 c-3 -5 -9 -33 -12 -61 -6 -49 -5 -51 18 -47 22 3 24 8 27
61 2 45 0 57 -12 57 -8 0 -18 -4 -21 -10z M1536 375 c-20 -52 2 -125 32 -106 20 12 12 115 -9 119 -9 2 -19 -4
-23 -13z M1726 382 c-13 -22 7 -112 25 -112 22 0 26 12 19 68 -5 45 -29 68
-44 44z M1914 338 c8 -59 17 -74 41 -64 12 4 15 14 10 43 -11 64 -16 73 -37
73 -19 0 -20 -4 -14 -52z M1132 163 c-20 -39 -23 -103 -6 -110 26 -10 45 25 42 76 -3 47 -21
64 -36 34z M1952 168 c-10 -10 -9 -32 4 -95 7 -36 44 -31 44 6 0 73 -23 114 -48
89z M1324 114 c-5 -43 -3 -58 7 -65 21 -13 37 11 39 56 3 61 2 65 -19 65
-16 0 -21 -10 -27 -56z M1537 164 c-14 -14 -7 -101 8 -114 25 -21 36 1 33 61 -3 52 -20 74
-41 53z M1745 160 c-15 -24 6 -110 26 -110 27 0 24 113 -3 118 -9 2 -19 -2
-23 -8z"/>
</g>
</svg>
