<svg xmlns="http://www.w3.org/2000/svg" viewBox="0 0 100 100" role="img">
<title>Copo americano</title>
<g transform="translate(0,100) scale(0.4274,-0.4274)" fill="currentColor">
<path d="M760 1664 c-206 -24 -282 -40 -347 -71 -63 -30 -66 34 33 -723 25
-190 61 -459 80 -597 18 -139 34 -257 34 -263 0 -5 9 -10 20 -10 26 0 26 -5
-15 298 -31 229 -61 460 -125 972 -11 85 -22 169 -24 187 l-4 31 32 -13 c203
-85 1044 -85 1259 1 17 6 18 3 13 -37 -4 -24 -26 -197 -51 -384 -24 -187 -65
-495 -90 -685 -52 -402 -50 -370 -25 -370 11 0 20 2 20 5 0 2 18 136 40 297
71 526 149 1122 156 1189 6 63 5 66 -21 88 -33 25 -103 47 -218 67 -79 15
-679 28 -767 18z m710 -48 c122 -15 215 -38 246 -61 113 -83 -664 -144 -1087
-85 -374 52 -251 130 261 164 102 7 464 -5 580 -18z M1586 1353 c-3 -16 -15 -102 -26 -193 -11 -91 -25 -196 -30 -235 -22
-146 -100 -826 -100 -862 0 -49 11 -66 41 -61 23 3 25 9 51 208 91 698 107
824 103 828 -2 2 -14 -3 -27 -12 -28 -18 -28 -33 -2 184 7 69 14 136 14 148 0
31 -17 27 -24 -5z M505 1028 c2 -13 32 -239 65 -503 71 -566 64 -525 95 -525 47 0 46
32 -6 491 -55 485 -55 487 -108 528 -46 37 -53 38 -46 9z M815 68 c5 -13 45 -42 50 -36 1 2 -11 13 -26 26 -16 13 -27 17 -24
10z M800 10 c-19 -4 102 -7 270 -7 182 0 285 3 255 7 -63 10 -478 10
-525 0z"/>
</g>
</svg>
