<svg xmlns="http://www.w3.org/2000/svg" viewBox="0 0 100 100">
<g transform="translate(0,100) scale(0.4274,-0.4274)" fill="currentColor">
<path d="M967 1880 c-128 -23 -315 -99 -301 -122 4 -7 3 -8 -4 -4 -13 8 -64
-22 -57 -34 3 -4 -3 -14 -13 -21 -15 -13 -16 -12 -3 4 35 44 -13 10 -76 -55
-352 -366 -292 -972 117 -1178 261 -131 677 -130 950 3 136 66 256 219 312
397 31 100 33 295 4 414 -21 86 -105 262 -123 259 -6 -1 -10 5 -9 15 0 9 -5
16 -12 14 -8 -1 -11 2 -6 9 19 32 -191 195 -318 247 -130 52 -334 75 -461 52z
m694 -207 c10 -12 5 -11 -18 6 -18 12 -33 24 -33 27 0 9 37 -15 51 -33z m-501
-13 c-18 -11 -24 -6 -16 16 5 14 9 15 19 5 9 -9 9 -14 -3 -21z m-130 -55 c-15
-16 -26 -21 -30 -14 -4 6 -10 10 -14 10 -29 -4 -24 3 14 18 55 21 61 19 30
-14z m160 -99 l25 -29 -27 19 c-15 10 -28 25 -28 33 0 8 1 12 3 10 1 -2 13
-17 27 -33z m-408 -93 c18 -16 25 -58 10 -67 -5 -3 -7 8 -4 23 3 21 -2 33 -19
45 -13 9 -19 16 -15 16 5 0 18 -7 28 -17z m744 -134 c-9 -19 -15 -29 -16 -22
0 18 20 66 25 61 3 -3 -1 -20 -9 -39z m-446 -130 c6 -11 9 -28 7 -37 -4 -13
-5 -13 -6 4 -2 40 -50 59 -81 32 -12 -11 -12 -10 -1 5 19 24 68 22 81 -4z
m278 -236 c-15 -9 -31 -26 -37 -37 -5 -12 -10 -15 -10 -8 -1 15 47 62 63 62 6
0 -1 -8 -16 -17z m-448 -95 c21 -11 28 -18 17 -18 -14 0 -71 23 -85 35 -1 1 3
15 10 31 l13 28 5 -30 c4 -21 15 -34 40 -46z m560 -17 c-12 -23 -58 -57 -65
-49 -3 3 6 10 19 17 13 7 30 24 37 37 7 13 14 22 16 20 3 -2 0 -14 -7 -25z
m-354 -127 c18 -14 18 -15 -5 -4 -18 9 -30 9 -49 0 -22 -10 -24 -9 -12 4 16
20 41 20 66 0z"/>
</g>
</svg>
