<svg xmlns="http://www.w3.org/2000/svg" viewBox="0 0 100 100" role="img">
<title>Cristo Redentor</title>
<g transform="translate(0,100) scale(0.4274,-0.4274)" fill="currentColor">
<path d="M1189 2298 c0 -24 -3 -61 -7 -83 l-7 -40 -70 -8 c-39 -4 -108 -17
-155 -28 -124 -29 -352 -43 -390 -24 -33 17 -81 20 -96 6 -5 -5 -27 -11 -49
-13 -32 -2 -41 -7 -43 -25 -6 -38 37 -56 147 -61 l98 -5 22 -51 c39 -95 57
-106 169 -106 53 0 113 -4 132 -9 19 -6 53 -14 75 -20 l40 -10 -3 -147 c-3
-122 0 -149 12 -156 11 -6 15 -30 15 -106 0 -53 2 -181 3 -284 l3 -187 -35 -3
c-28 -2 -36 -8 -38 -25 -2 -14 -10 -23 -22 -23 -19 0 -30 -19 -30 -53 l0 -20
-22 20 c-59 53 -119 54 -162 2 -14 -17 -26 -35 -26 -40 0 -5 -14 -9 -30 -9
-64 0 -131 -69 -117 -120 4 -14 -2 -20 -24 -25 -35 -8 -79 -58 -79 -90 0 -16
-9 -26 -30 -35 -36 -15 -60 -46 -60 -77 l0 -23 901 0 901 0 -6 28 c-4 15 -19
38 -34 52 -15 14 -26 33 -24 42 8 41 -43 98 -86 98 -15 0 -21 9 -26 34 -7 38
-56 86 -87 86 -12 0 -19 7 -19 18 0 39 -60 69 -103 53 -20 -8 -29 -6 -43 10
-23 26 -83 25 -118 -2 -26 -20 -26 -20 -26 -1 0 33 -11 52 -30 52 -12 0 -20 9
-22 23 -2 18 -10 23 -42 25 l-38 3 7 162 c4 89 11 166 16 172 5 5 9 129 9 277
l0 267 38 10 c94 25 133 31 224 31 110 0 120 6 167 108 24 52 25 52 71 52 77
0 153 18 177 43 30 29 17 47 -35 49 -23 1 -43 7 -46 14 -6 15 -55 10 -91 -9
-40 -21 -269 -8 -425 23 -80 16 -158 30 -175 32 -17 2 -31 9 -32 18 -1 8 -5
45 -8 83 l-7 67 -104 0 -104 0 -1 -42z"/>
</g>
</svg>
