<svg xmlns="http://www.w3.org/2000/svg" viewBox="0 0 100 100" role="img">
<title>Filtro de barro</title>
<g transform="translate(0,100) scale(0.4274,-0.4274)" fill="currentColor">
<path d="M1044 1955 c-4 -9 -1 -28 5 -41 15 -33 7 -44 -31 -44 -92 0 -249 -63
-304 -122 -80 -84 -86 -115 -90 -453 -2 -143 -3 -267 -4 -275 0 -8 2 -44 5
-80 3 -36 12 -195 19 -355 15 -312 20 -342 74 -398 15 -16 39 -35 54 -43 38
-20 45 -55 19 -99 -12 -20 -21 -38 -21 -41 0 -2 162 -4 360 -4 l360 0 -20 32
c-26 44 -25 108 2 108 15 0 59 37 84 72 34 46 42 106 54 413 6 154 16 293 22
308 8 20 8 31 0 39 -7 7 -7 16 0 28 6 10 8 25 5 34 -4 10 -8 144 -10 299 -3
312 -4 321 -77 409 -51 61 -214 128 -313 128 -38 0 -39 1 -33 28 17 68 19 67
-72 70 -68 2 -83 0 -88 -13z m200 -1351 c9 -3 16 -16 16 -29 0 -22 -2 -22
-119 -21 -66 1 -117 -3 -114 -8 3 -5 0 -7 -8 -4 -8 3 -14 16 -14 29 0 24 2 24
110 30 61 3 111 6 112 7 1 1 8 -1 17 -4z m-124 -86 c0 6 9 12 20 12 13 0 20
-7 20 -20 0 -16 -7 -20 -30 -20 -24 0 -30 4 -30 23 0 18 2 19 10 7 6 -10 10
-11 10 -2z m65 -58 c12 -14 31 -20 58 -20 69 0 99 -48 57 -90 -13 -13 -33 -20
-60 -20 -36 0 -40 -2 -40 -25 0 -30 -6 -32 -82 -38 l-57 -4 -6 73 c-8 76 -3
105 21 129 23 22 87 19 109 -5z m-5 -246 c0 -32 -93 -31 -98 1 -2 18 2 20 48
17 34 -3 50 -8 50 -18z M1186 424 c-3 -8 -2 -13 3 -10 5 3 11 -12 15 -35 8 -47 26 -43 26 6
0 39 -33 68 -44 39z M1270 360 c-19 -4 -21 -7 -9 -12 9 -3 22 -2 30 2 19 13 8 18 -21 10z M1070 299 c0 -16 4 -28 9 -25 8 5 3 56 -5 56 -2 0 -4 -14 -4 -31z"/>
</g>
</svg>
