<svg xmlns="http://www.w3.org/2000/svg" viewBox="0 0 100 100" role="img">
<title>Garrafa térmica</title>
<g transform="translate(0,100) scale(0.4274,-0.4274)" fill="currentColor">
<path d="M170 2303 c-17 -21 -38 -63 -47 -93 -9 -30 -27 -67 -41 -81 l-23 -27
-9 -408 c-5 -225 -12 -581 -15 -792 l-7 -382 36 -35 c135 -127 620 -123 750 7
l39 39 -7 359 -7 359 44 12 c56 14 111 58 140 112 33 63 34 629 1 674 -34 46
-82 73 -133 74 -94 3 -101 7 -125 80 -12 36 -34 83 -49 103 l-28 36 -244 0
-244 0 -31 -37z m744 -345 c23 -33 23 -475 1 -518 -13 -25 -58 -50 -69 -39 -2
2 -7 133 -11 292 l-8 287 36 0 c26 0 40 -6 51 -22z M1220 1191 c-26 -4 14 -7 95 -7 97 0 124 2 90 7 -59 9 -122 8 -185 0z M1002 1139 c-50 -15 -62 -54 -62 -196 0 -458 70 -553 397 -541 169 6
272 58 303 153 9 26 18 33 60 44 72 18 127 62 156 124 65 141 -7 277 -147 277
-26 0 -29 4 -29 30 0 36 -4 37 -42 5 -75 -63 -308 -92 -486 -61 -99 17 -185
54 -196 82 -6 16 -4 15 15 -2 l21 -19 -6 31 c-6 28 -3 35 26 58 18 14 31 25
28 25 -3 0 -20 -5 -38 -10z m761 -249 c69 -55 22 -180 -77 -204 -23 -6 -27 -4
-23 8 4 9 7 58 8 110 1 79 4 96 18 99 33 9 49 6 74 -13z M1132 1115 c-120 -26 -163 -70 -95 -98 137 -54 409 -54 546 0 158 63
-227 146 -451 98z"/>
</g>
</svg>
