<svg xmlns="http://www.w3.org/2000/svg" viewBox="0 0 100 100" role="img">
<title>Guarda-sol de praia</title>
<g transform="translate(0,100) scale(0.4274,-0.4274)" fill="currentColor">
<path d="M840 2323 c54 -23 260 -14 260 12 0 3 -66 5 -147 4 -141 -1 -146 -1
-113 -16z M1620 2325 c46 -18 186 -18 225 0 27 12 16 13 -115 13 -132 0 -142
-1 -110 -13z M1322 1819 c-23 -9 -38 -49 -28 -74 4 -12 -6 -15 -64 -15 -341 0
-649 -126 -824 -336 -27 -32 -58 -66 -69 -75 -12 -9 -18 -25 -15 -40 4 -32 41
-38 61 -9 20 29 77 20 141 -20 48 -31 108 -111 87 -118 -18 -6 -13 -50 8 -61
19 -11 51 12 51 36 0 14 78 25 169 24 111 -1 234 -43 308 -105 l31 -26 -21
-95 c-17 -82 -18 -100 -7 -120 12 -22 10 -43 -14 -153 -15 -70 -37 -173 -49
-230 -15 -72 -26 -101 -34 -97 -7 2 -13 0 -13 -5 0 -5 8 -11 18 -13 9 -3 1 -4
-18 -4 l-34 2 -18 -75 c-22 -87 -27 -185 -12 -200 7 -7 63 -10 154 -8 l144 3
12 42 c14 49 -2 83 -40 83 -27 0 -41 -14 -50 -53 -15 -61 -75 -87 -111 -47
-18 20 -18 24 1 125 13 65 17 108 11 114 -18 18 117 628 144 654 12 11 18 26
14 36 -13 41 207 61 317 28 31 -9 85 -36 119 -60 57 -38 63 -45 64 -77 0 -25
5 -36 18 -38 27 -5 49 18 43 44 -5 19 1 27 37 48 86 51 223 43 229 -13 2 -20
8 -26 28 -26 28 0 38 25 22 59 -5 11 -20 57 -32 101 -90 321 -333 567 -663
671 l-54 17 14 29 c25 49 -21 97 -75 77z"/>
</g>
</svg>
