<svg xmlns="http://www.w3.org/2000/svg" viewBox="0 0 100 100" role="img">
<title>Manga</title>
<g transform="translate(0,100) scale(0.4274,-0.4274)" fill="currentColor">
<path d="M500 2296 c0 -26 6 -48 15 -56 22 -18 127 -24 147 -8 19 15 36 108
20 108 -11 0 -22 -33 -22 -66 0 -25 -17 -34 -66 -34 -60 0 -77 16 -70 61 5 31
3 39 -9 39 -11 0 -15 -11 -15 -44z M1662 2323 c5 -29 88 -30 119 -3 l24 22 -25 -7 c-51 -14 -100 -17
-100 -6 0 6 -5 11 -11 11 -6 0 -9 -8 -7 -17z M970 1651 c-440 -97 -803 -464 -866 -874 -9 -56 -25 -134 -36 -174
-50 -172 12 -323 179 -436 123 -84 261 -98 408 -42 39 14 138 51 220 81 626
226 975 584 979 1004 2 260 -98 385 -329 410 -44 5 -105 17 -135 26 -87 26
-313 29 -420 5z m603 -92 c68 -18 46 -49 -98 -140 -409 -256 -855 -603 -1001
-780 -57 -69 -70 -80 -90 -75 -35 9 -30 0 30 -55 117 -107 159 -278 85 -345
-79 -72 -315 50 -384 198 -34 72 -30 215 4 193 5 -3 13 0 17 6 5 8 3 9 -6 4
-8 -5 -11 -3 -8 6 10 31 105 45 160 24 10 -4 13 10 14 57 4 150 104 376 206
463 12 11 8 3 -10 -18 -63 -74 -23 -196 79 -242 55 -25 74 -7 27 26 -137 96
-113 243 64 383 42 34 89 68 105 78 l28 16 -4 -50 c-3 -44 0 -53 25 -80 32
-34 133 -88 163 -88 34 0 33 18 -2 29 -18 6 -61 34 -95 62 -70 56 -76 83 -29
122 12 10 36 31 52 46 33 31 87 60 162 90 60 23 116 36 92 21 -10 -5 -26 -26
-38 -45 l-21 -36 68 -30 c64 -30 132 -48 132 -36 0 3 -35 25 -77 48 -43 23
-80 44 -82 46 -3 2 8 16 23 32 26 27 50 37 156 67 55 16 202 18 253 3z M174 457 c3 -10 6 -25 6 -33 0 -20 78 -102 114 -121 17 -9 48 -34 68
-55 28 -30 41 -38 57 -33 50 16 10 73 -87 125 -34 18 -85 56 -113 84 -28 28
-49 43 -45 33z"/>
</g>
</svg>
