<svg xmlns="http://www.w3.org/2000/svg" viewBox="0 0 100 100" role="img">
<title>Orelhão</title>
<g transform="translate(0,100) scale(0.4274,-0.4274)" fill="currentColor">
<path d="M652 2313 c7 -60 175 -92 473 -92 298 0 466 32 473 92 l3 27 -476 0
-476 0 3 -27z M1035 1834 c-270 -42 -497 -245 -570 -509 -64 -233 7 -644 141 -821
24 -30 24 -34 24 -267 l0 -237 120 0 120 0 0 165 c0 138 2 165 15 165 8 0 22
-16 31 -36 49 -102 188 -86 210 25 4 19 18 34 50 50 105 56 171 165 239 391
64 210 104 291 217 427 79 97 102 150 95 220 -17 167 -176 337 -371 399 -80
25 -245 40 -321 28z m45 -1514 c0 -39 -70 -62 -102 -33 -24 21 -23 31 5 36 44
8 97 7 97 -3z"/>
</g>
</svg>
