<svg xmlns="http://www.w3.org/2000/svg" viewBox="0 0 100 100" role="img">
<title>Pandeiro</title>
<g transform="translate(0,100) scale(0.4274,-0.4274)" fill="currentColor">
<path d="M940 2151 c-393 -84 -805 -446 -905 -796 -9 -33 -21 -68 -26 -77 -15
-30 -11 -206 5 -215 7 -4 25 -31 40 -60 14 -28 30 -54 36 -58 6 -3 19 -24 30
-44 19 -38 19 -39 0 -56 -27 -24 -43 -80 -36 -120 18 -96 138 -143 223 -89 32
20 41 18 58 -16 44 -86 159 -94 265 -19 16 11 52 19 100 23 41 3 109 16 152
29 46 15 81 21 90 16 65 -42 232 47 254 135 3 14 22 37 42 53 60 44 149 132
193 189 23 30 49 54 58 54 27 0 95 49 121 87 31 45 39 127 16 172 -14 26 -15
39 -6 72 6 22 13 77 15 121 4 71 7 83 34 113 102 117 30 295 -119 295 -46 0
-51 -2 -45 -17 45 -109 55 -213 29 -308 -12 -46 -13 -47 -8 -10 4 30 2 36 -6
25 -8 -12 -10 -10 -6 10 70 364 -194 578 -604 491z m355 -41 c311 -122 271
-556 -84 -911 -388 -386 -976 -472 -1130 -164 -178 356 298 963 854 1091 96
22 285 13 360 -16z m211 -607 l-6 -28 15 25 16 25 -7 -25 c-15 -60 -136 -252
-185 -295 -12 -11 -4 4 19 33 37 48 48 83 20 66 -5 -3 7 19 28 50 41 62 53 73
29 25 -27 -51 -11 -56 18 -5 32 57 32 57 11 49 -11 -4 -8 9 13 51 30 62 38 70
29 29z m-164 -250 c-17 -21 -45 -51 -63 -68 -18 -16 -6 0 27 37 65 74 83 90
36 31z m-22 -76 c0 -2 -17 -19 -37 -38 l-38 -34 34 38 c33 34 41 42 41 34z
m-160 -108 c-46 -36 -80 -60 -80 -56 0 6 92 77 99 77 3 0 -5 -9 -19 -21z m50
6 c-7 -9 -32 -30 -54 -46 -35 -27 -34 -25 9 15 51 47 67 58 45 31z m-150 -115
c-32 -25 -187 -106 -220 -114 -14 -4 16 13 65 38 50 24 108 56 130 70 48 30
60 33 25 6z m55 -50 c-7 -11 -65 -43 -65 -36 0 4 62 45 68 46 2 0 0 -5 -3 -10z
m-885 -75 c0 3 7 -1 16 -10 9 -9 24 -13 33 -10 12 5 13 4 4 -6 -15 -15 -54 0
-98 36 l-30 25 38 -21 c20 -11 37 -18 37 -14z m560 21 c0 -6 -93 -37 -97 -32
-2 2 15 11 39 19 47 17 58 19 58 13z m-20 -35 c-8 -5 -31 -11 -50 -14 -35 -6
-35 -6 5 8 46 15 67 18 45 6z m-222 -28 c-16 -2 -40 -2 -55 0 -16 2 -3 4 27 4
30 0 43 -2 28 -4z m-15 -20 c-29 -2 -77 -2 -105 0 -29 2 -6 3 52 3 58 0 81 -1
53 -3z"/>
</g>
</svg>
