<svg xmlns="http://www.w3.org/2000/svg" viewBox="0 0 100 100" role="img">
<title>Panela de pressão</title>
<g transform="translate(0,100) scale(0.4274,-0.4274)" fill="currentColor">
<path d="M678 2325 c154 -67 625 -67 777 0 26 11 -31 13 -390 14 -374 0 -416
-1 -387 -14z M845 1598 c-11 -53 -26 -189 -20 -197 3 -5 19 -12 35 -16 54 -12 23
-22 -87 -28 -200 -11 -410 -82 -481 -162 -20 -23 -50 -45 -67 -49 -44 -11 -65
-34 -65 -73 l0 -33 -80 0 -80 0 0 -85 c0 -82 1 -86 25 -95 13 -5 36 -27 49
-49 31 -48 47 -58 114 -67 l52 -7 0 -307 c0 -318 3 -347 43 -402 l20 -27 602
-1 c563 0 603 1 617 17 41 48 43 60 48 373 l5 305 43 6 c32 4 53 16 85 46 55
54 89 62 297 70 199 7 220 16 220 88 0 73 -8 75 -285 75 l-245 0 0 25 c0 37
49 59 114 51 402 -45 396 -45 396 8 0 32 -21 66 -40 66 -4 0 -111 14 -237 31
-125 16 -268 33 -318 36 -81 6 -93 9 -132 39 -74 56 -196 94 -382 119 -110 14
-152 25 -99 25 43 0 49 18 38 111 -18 141 -9 129 -100 129 -74 0 -80 -1 -85
-22z m-591 -497 c-6 -6 -34 20 -34 32 0 6 8 2 19 -9 10 -10 17 -21 15 -23z
m1386 0 c0 -4 -11 -6 -25 -3 -14 2 -25 6 -25 8 0 2 11 4 25 4 14 0 25 -4 25
-9z m-1177 -28 c-13 -2 -33 -2 -45 0 -13 2 -3 4 22 4 25 0 35 -2 23 -4z m955
0 c-16 -2 -40 -2 -55 0 -16 2 -3 4 27 4 30 0 43 -2 28 -4z m-268 -17 c29 -7
-465 -4 -530 3 -36 3 66 5 225 3 160 -2 297 -5 305 -6z m143 7 c-18 -2 -48 -2
-65 0 -18 2 -4 4 32 4 36 0 50 -2 33 -4z m142 -13 c-16 -4 -43 -8 -60 -8 -29
1 -29 1 5 8 50 11 97 11 55 0z m-827 -117 c-16 -2 -40 -2 -55 0 -16 2 -3 4 27
4 30 0 43 -2 28 -4z m-59 -49 c8 -7 -104 -3 -144 6 -27 5 -11 6 50 3 50 -3 92
-7 94 -9z m79 -11 c-10 -2 -28 -2 -40 0 -13 2 -5 4 17 4 22 1 32 -1 23 -4z
m-271 -100 c-2 -16 -4 -3 -4 27 0 30 2 43 4 28 2 -16 2 -40 0 -55z m0 -255
c-2 -24 -4 -5 -4 42 0 47 2 66 4 43 2 -24 2 -62 0 -85z"/>
</g>
</svg>
