<svg xmlns="http://www.w3.org/2000/svg" viewBox="0 0 100 100" role="img">
<title>Pedra portuguesa</title>
<g transform="translate(0,100) scale(0.4274,-0.4274)" fill="currentColor">
<path d="M204 1879 c-67 -58 -131 -98 -171 -105 l-33 -6 0 -114 c0 -63 4 -114
9 -114 17 0 103 84 121 119 28 54 87 119 126 137 33 16 36 16 49 -2 7 -10 11
-22 8 -27 -2 -4 3 -19 11 -32 15 -22 15 -25 1 -25 -8 0 -15 -4 -15 -8 0 -5 10
-8 23 -7 23 2 26 27 5 52 -6 7 -8 19 -5 27 3 8 -1 20 -10 28 -14 11 -13 13 8
19 105 30 204 -14 264 -116 93 -160 359 -127 404 51 42 167 265 191 461 50 92
-66 158 -86 236 -71 33 6 35 8 29 33 -11 44 -49 85 -106 117 l-54 29 -302 4
c-167 3 -311 1 -320 -3 -10 -5 -29 -8 -43 -7 l-25 1 25 -7 24 -8 -34 -25 c-71
-53 -191 -60 -275 -16 -79 41 -86 49 -42 45 20 -2 37 0 37 5 0 4 -21 8 -47 8
-27 0 -107 3 -179 5 l-132 5 -48 -42z M136 1901 c-4 -6 -12 -9 -17 -6 -17 11 -9 -11 11 -28 21 -18 28 -9 8
11 -9 9 -9 12 -1 12 7 0 15 -4 18 -10 10 -16 22 -12 28 10 6 22 -8 28 -16 8
-4 -10 -8 -10 -15 1 -7 9 -12 10 -16 2z M644 1898 c10 -5 20 -7 23 -4 3 3 18 -1 34 -9 18 -10 30 -11 34 -5 3
6 1 10 -4 10 -20 0 -26 2 -36 10 -5 4 -23 8 -39 8 -24 0 -26 -2 -12 -10z M767 1896 c-9 -7 -17 -19 -17 -26 0 -8 -10 -10 -32 -6 -18 3 -42 7
-54 9 -11 2 -27 7 -35 11 -8 4 -3 -2 11 -14 14 -13 26 -17 28 -11 2 7 9 5 19
-4 27 -28 163 -14 163 17 0 9 -3 9 -12 0 -7 -7 -20 -12 -30 -12 -17 0 -16 2 2
20 12 12 25 18 30 15 5 -3 11 -1 15 5 4 6 -4 10 -19 10 -13 0 -27 -6 -29 -12
-4 -10 -8 -10 -14 -1 -6 8 -12 8 -26 -1z M37 1851 c-32 -30 -39 -43 -30 -51 8 -9 16 -9 30 -1 16 11 16 11 -4
6 -25 -7 -31 6 -11 23 14 10 53 10 64 -1 11 -11 26 -8 19 3 -3 6 1 7 9 4 22
-9 20 12 -4 36 -26 26 -24 26 -73 -19z M1200 1867 c0 -14 -6 -27 -12 -30 -8 -2 -9 -8 -4 -13 5 -5 11 -4 13
4 3 7 11 19 19 26 11 12 11 16 -1 26 -13 10 -15 8 -15 -13z M1320 1853 c1 -7 83 -53 95 -53 20 0 -3 23 -39 40 -49 22 -56 24 -56
13z M1146 1841 c-3 -5 -4 -15 -1 -23 3 -7 -4 -19 -15 -26 -22 -13 -27 -3
-8 16 9 9 9 12 0 12 -7 0 -21 -9 -32 -20 -22 -22 -36 -25 -45 -10 -3 6 6 15
22 22 22 9 24 12 11 15 -21 5 -52 -22 -43 -37 3 -5 1 -10 -4 -10 -6 0 -11 -5
-11 -11 0 -6 8 -8 19 -4 10 3 25 0 33 -8 7 -7 19 -12 27 -9 10 3 12 -1 8 -17
-3 -14 -1 -21 6 -18 24 8 19 36 -7 43 -14 3 -23 10 -20 16 3 5 13 7 21 4 18
-7 93 14 93 26 0 11 -17 10 -25 -2 -3 -5 -10 -10 -14 -10 -11 0 -9 33 3 41 4
4 3 9 -2 13 -6 3 -13 2 -16 -3z M354 1796 c4 -15 1 -26 -7 -29 -7 -3 -5 -6 6 -6 9 -1 17 -9 17 -18 0
-14 3 -14 12 -5 10 10 10 14 0 21 -7 4 -12 12 -11 17 4 22 -2 44 -12 44 -7 0
-9 -9 -5 -24z M393 1794 c0 -19 3 -24 16 -18 9 4 24 7 34 8 21 0 23 26 2 26 -8 0
-15 -4 -15 -10 0 -5 -4 -10 -10 -10 -5 0 -10 7 -10 15 0 8 -4 15 -9 15 -5 0
-8 -12 -8 -26z M1262 1799 c9 -5 15 -16 12 -23 -8 -20 78 -30 89 -10 6 10 16 13 30
8 22 -7 22 -6 3 15 -22 25 -49 27 -70 6 -8 -8 -19 -15 -25 -15 -6 0 -8 7 -5
15 5 11 -1 15 -22 15 -24 -1 -26 -2 -12 -11z M1430 1804 c0 -8 66 -74 75 -74 16 0 0 22 -35 50 -22 17 -40 28 -40
24z M260 1770 c0 -5 7 -10 15 -10 8 0 15 5 15 10 0 6 -7 10 -15 10 -8 0
-15 -4 -15 -10z M1185 1770 c-4 -6 -10 -8 -15 -5 -4 3 -14 -2 -21 -11 -11 -13 -9 -14
17 -8 35 8 49 19 36 28 -6 3 -13 2 -17 -4z M1220 1770 c0 -5 9 -10 20 -10 11 0 20 5 20 10 0 6 -9 10 -20 10 -11
0 -20 -4 -20 -10z M425 1760 c3 -5 -1 -10 -9 -10 -9 0 -16 -4 -16 -10 0 -14 13 -13 28
2 15 15 15 28 1 28 -5 0 -7 -4 -4 -10z M505 1762 c21 -14 55 -65 49 -73 -9 -15 -34 -10 -28 5 3 8 -2 20 -11
27 -8 8 -23 20 -31 28 -8 7 -17 11 -20 8 -3 -3 9 -19 28 -36 18 -17 27 -31 20
-31 -10 0 -10 -3 2 -15 19 -20 25 -19 47 6 17 20 17 22 -13 55 -17 19 -36 34
-42 34 -7 0 -8 -3 -1 -8z M1418 1753 c-3 -13 -2 -26 4 -29 14 -9 16 -2 8 26 -6 25 -6 25 -12 3z M1220 1741 c-46 -10 -90 -33 -116 -63 -28 -29 -64 -98 -64 -119 0
-47 -71 -128 -136 -155 -41 -17 -121 -18 -177 -1 -42 12 -137 95 -137 120 0
39 -105 116 -168 123 -120 13 -218 -47 -282 -173 -34 -67 -88 -127 -122 -139
-16 -5 -18 -20 -18 -127 0 -137 5 -167 28 -167 15 0 15 2 0 17 -16 15 -14 20
28 67 24 28 44 54 44 59 0 15 41 97 48 97 5 0 13 -5 20 -12 9 -9 15 -9 24 0 9
9 7 12 -10 12 -31 0 -27 16 11 51 83 78 215 105 312 64 46 -19 87 -60 114
-113 73 -142 226 -198 349 -126 32 19 47 23 55 15 14 -14 27 -14 27 -1 0 6 -7
10 -15 10 -21 0 -19 4 14 51 17 22 35 65 42 95 13 56 23 72 34 54 8 -13 35
-13 35 0 0 6 -8 10 -18 10 -29 0 -32 10 -14 39 53 81 117 112 229 107 107 -3
142 -20 228 -110 64 -66 106 -99 143 -110 22 -7 22 -7 22 102 l0 110 -47 7
c-71 10 -102 26 -173 89 -109 96 -219 137 -310 117z M200 1725 c0 -8 -7 -15 -15 -15 -8 0 -15 -6 -15 -14 0 -8 -12 -28
-26 -45 -22 -26 -23 -31 -8 -31 9 0 15 2 12 5 -3 3 7 18 21 34 21 23 28 26 34
15 6 -10 1 -21 -15 -34 -13 -11 -18 -19 -12 -20 25 0 46 37 34 60 -9 16 -9 25
-1 33 14 14 14 27 1 27 -5 0 -10 -7 -10 -15z M240 1720 c-14 -10 -22 -21 -19 -25 4 -3 13 0 20 8 8 8 21 16 29 19
8 2 10 7 4 10 -5 4 -21 -2 -34 -12z M1012 1728 c-14 -14 -16 -28 -3 -28 9 0 24 30 18 36 -2 2 -9 -2 -15
-8z M1520 1731 c0 -5 -9 -11 -20 -14 -11 -3 -18 -1 -14 4 6 10 -19 12
-29 2 -7 -6 27 -42 82 -85 26 -22 48 -24 27 -2 -20 20 -21 18 10 49 20 20 24
29 15 38 -8 8 -11 7 -11 -6 0 -18 -25 -23 -35 -7 -3 6 -1 10 5 10 6 0 8 5 5
10 -8 12 -35 13 -35 1z m6 -37 c-4 -11 -2 -15 8 -11 10 4 13 1 9 -9 -5 -13 -8
-12 -24 2 -15 14 -17 19 -7 26 19 11 21 10 14 -8z M1066 1696 c3 -9 11 -16 16 -16 13 0 5 23 -10 28 -7 2 -10 -2 -6 -12z M240 1680 c-8 -5 -11 -12 -8 -16 4 -3 14 1 23 10 18 17 9 21 -15 6z M432 1678 c5 -15 28 -23 28 -10 0 5 -7 13 -16 16 -10 4 -14 1 -12 -6z M977 1666 c-26 -22 -27 -25 -11 -41 14 -14 15 -18 3 -25 -7 -5 -10
-12 -7 -16 4 -3 14 1 23 10 9 9 13 16 9 16 -3 0 -1 7 6 15 7 9 9 19 5 23 -4 4
-10 1 -12 -5 -5 -14 -23 -18 -23 -5 0 5 11 15 25 22 14 7 25 17 25 22 0 14
-14 9 -43 -16z M1027 1660 c-3 -11 -2 -20 2 -20 3 0 12 9 19 20 10 16 10 20 -2 20
-7 0 -16 -9 -19 -20z M480 1661 c0 -6 4 -11 10 -11 5 0 21 -12 36 -27 15 -16 24 -23 21
-17 -7 12 27 44 46 44 6 -1 1 -10 -12 -21 -23 -19 -23 -20 -6 -39 10 -11 22
-17 28 -13 5 3 3 10 -7 15 -20 11 -21 28 -2 28 16 0 25 19 19 38 -7 19 -34 14
-54 -9 l-18 -21 -31 22 c-16 12 -30 17 -30 11z M1570 1655 c0 -8 7 -15 15 -15 8 0 15 -4 15 -10 0 -5 9 -10 20 -10
11 0 20 -4 20 -10 0 -5 5 -10 10 -10 21 0 8 16 -35 42 -34 20 -45 24 -45 13z M260 1650 c0 -5 7 -10 15 -10 8 0 15 5 15 10 0 6 -7 10 -15 10 -8 0
-15 -4 -15 -10z M1654 1643 c7 -8 12 -9 54 -11 12 -1 22 -7 22 -13 0 -7 -10 -9 -25
-7 -14 3 -28 2 -30 -2 -7 -11 22 -21 40 -14 10 4 15 0 15 -11 0 -13 -6 -16
-26 -11 -19 5 -25 3 -22 -6 3 -7 11 -13 19 -13 8 0 20 -4 27 -8 9 -6 12 4 12
41 0 47 -1 50 -31 56 -42 8 -64 8 -55 -1z M217 1620 c-9 -11 -13 -20 -8 -20 4 0 16 9 26 20 10 11 14 20 9 20
-5 0 -17 -9 -27 -20z M1012 1600 c-13 -22 -9 -40 10 -40 5 0 7 7 4 16 -4 10 1 22 11 30 15
11 15 13 3 14 -8 0 -21 -9 -28 -20z M668 1599 c-30 -17 -9 -58 30 -59 21 0 13 18 -10 22 -25 4 -37 28
-14 28 9 0 16 -4 16 -10 0 -5 5 -10 10 -10 6 0 10 7 10 16 0 8 -4 13 -9 10 -5
-4 -11 -2 -13 3 -2 6 -10 6 -20 0z M1587 1603 c-3 -5 6 -13 19 -20 20 -9 24 -8 24 5 0 8 -3 12 -7 9 -3
-4 -12 -2 -19 4 -7 5 -14 6 -17 2z M110 1590 c-8 -5 -11 -12 -7 -16 4 -4 13 -2 19 4 15 15 7 24 -12 12z M860 1581 c0 -12 5 -21 10 -21 6 0 10 6 10 14 0 8 -4 18 -10 21 -5 3
-10 -3 -10 -14z M720 1584 c0 -13 29 -34 35 -25 3 6 12 8 20 4 9 -3 15 1 15 11 0 19
-11 21 -27 5 -8 -8 -13 -8 -17 0 -7 11 -26 15 -26 5z M810 1566 c0 -14 5 -28 11 -31 15 -10 18 -4 12 28 -7 34 -23 36 -23
3z M916 1564 c-11 -7 -16 -17 -12 -21 4 -4 10 -3 14 3 4 6 14 13 22 16
7 2 10 7 4 10 -5 4 -18 0 -28 -8z M56 1545 c-3 -8 -15 -15 -26 -15 -12 0 -19 -4 -15 -9 3 -5 1 -12 -4
-15 -12 -8 -11 -56 1 -56 6 0 8 8 5 19 -3 12 7 28 29 47 33 29 42 44 25 44 -5
0 -11 -7 -15 -15z M601 1547 c8 -7 24 -27 34 -44 11 -18 25 -33 32 -33 6 0 16 -6 20
-12 16 -25 63 -46 63 -28 0 6 -5 10 -11 10 -21 0 -87 55 -105 87 -9 18 -24 33
-33 33 -14 -1 -15 -2 0 -13z M650 1541 c0 -5 7 -14 15 -21 16 -14 18 -10 9 14 -6 17 -24 22 -24 7z M775 1539 c-10 -15 3 -25 16 -12 7 7 7 13 1 17 -6 3 -14 1 -17 -5z M720 1530 c0 -5 7 -10 15 -10 8 0 15 5 15 10 0 6 -7 10 -15 10 -8 0
-15 -4 -15 -10z M885 1520 c-3 -5 -12 -7 -19 -4 -7 3 -19 -3 -27 -12 -13 -15 -11 -16
11 -9 42 13 78 34 58 35 -9 0 -19 -4 -23 -10z M1374 1519 c-3 -5 -3 -10 0 -10 3 -1 11 -3 16 -4 6 -1 13 -3 17 -4 4
0 -2 -7 -13 -15 -10 -8 -15 -18 -11 -23 9 -8 48 37 41 48 -7 12 -44 17 -50 8z M68 1501 c-7 -12 -19 -21 -27 -21 -11 0 -12 -3 -4 -11 9 -9 16 -8 28
5 9 9 13 16 8 16 -4 0 -1 4 7 10 8 5 11 12 8 15 -4 4 -13 -2 -20 -14z M691 1506 c-7 -8 -8 -17 -3 -20 6 -3 13 1 16 10 9 23 2 28 -13 10z M105 1501 c-6 -11 9 -23 19 -14 9 9 7 23 -3 23 -6 0 -12 -4 -16 -9z M960 1494 c0 -9 -9 -18 -20 -21 -11 -3 -20 -12 -20 -19 0 -19 16 -18
24 2 3 8 11 12 17 8 7 -4 9 -3 5 4 -3 6 -2 13 4 17 13 8 13 25 0 25 -5 0 -10
-7 -10 -16z M720 1493 c0 -5 5 -15 10 -23 8 -12 10 -11 10 8 0 12 -4 22 -10 22
-5 0 -10 -3 -10 -7z M893 1490 c-13 -5 -23 -14 -23 -21 0 -6 6 -8 13 -5 6 3 20 9 30 12 9
4 17 10 17 15 0 11 -8 11 -37 -1z M1200 1475 c0 -8 7 -15 15 -15 8 0 15 7 15 15 0 8 -7 15 -15 15 -8 0
-15 -7 -15 -15z M1340 1475 c0 -8 5 -15 10 -15 6 0 10 7 10 15 0 8 -4 15 -10 15 -5 0
-10 -7 -10 -15z M1485 1481 c-6 -11 9 -23 19 -14 9 9 7 23 -3 23 -6 0 -12 -4 -16 -9z M832 1471 c2 -7 7 -12 11 -12 12 1 9 15 -3 20 -7 2 -11 -2 -8 -8z M1420 1450 c-6 -11 -8 -20 -4 -20 3 0 1 -7 -6 -16 -11 -13 -10 -16 8
-21 13 -3 22 -13 22 -24 0 -11 5 -19 11 -19 6 0 8 9 4 20 -5 14 -2 20 10 20
12 0 15 -6 10 -20 -4 -14 -2 -20 8 -20 10 0 13 7 10 20 -7 26 22 27 36 3 6
-10 11 -14 11 -9 0 5 7 3 15 -4 8 -7 15 -9 15 -6 0 11 -27 36 -39 36 -6 0 -20
14 -33 30 -27 37 -34 37 -42 5 -4 -14 -11 -25 -16 -25 -15 0 -12 23 6 48 13
20 13 22 0 22 -8 0 -20 -9 -26 -20z M71 1451 c-9 -6 -10 -11 -2 -15 13 -8 31 1 31 15 0 11 -11 11 -29 0z M1517 1453 c-4 -3 -7 -9 -7 -13 0 -8 75 -60 85 -60 15 0 -32 49 -47
50 -11 0 -15 5 -12 15 6 15 -7 21 -19 8z M883 1435 c0 -8 4 -15 8 -15 4 0 9 7 13 15 3 9 0 15 -8 15 -7 0 -13
-7 -13 -15z M1170 1440 c0 -5 7 -10 15 -10 8 0 15 5 15 10 0 6 -7 10 -15 10 -8 0
-15 -4 -15 -10z M1234 1441 c4 -5 1 -11 -6 -13 -9 -3 -9 -6 0 -12 7 -4 12 -2 12 3 0
6 5 11 10 11 6 0 10 -7 10 -15 0 -8 5 -15 10 -15 14 0 13 23 -2 38 -14 14 -42
16 -34 3z M11 1424 c-20 -23 -9 -25 19 -4 16 13 20 20 10 19 -8 0 -21 -7 -29
-15z M1197 1414 c-12 -12 -8 -24 8 -24 8 0 15 -7 15 -15 0 -8 4 -15 9 -15
5 0 11 7 15 15 3 8 0 15 -6 15 -6 0 -16 7 -22 16 -6 8 -15 12 -19 8z M11 1384 c-10 -12 -10 -19 -2 -27 8 -8 11 -7 11 6 0 9 5 17 10 17 6
0 10 5 10 10 0 14 -13 12 -29 -6z M360 1390 c-1 -8 -2 -21 -1 -27 1 -7 -5 -13 -14 -13 -10 0 -15 -7
-13 -16 2 -8 8 -14 13 -12 6 2 9 7 7 12 -1 4 9 5 23 2 14 -4 25 -2 25 4 0 5
-4 10 -8 10 -5 0 -13 12 -19 28 -6 15 -12 21 -13 12z M419 1377 c6 -8 8 -17 5 -20 -4 -3 1 -14 10 -23 13 -12 20 -14 29 -5
8 8 7 11 -6 11 -9 0 -17 7 -17 15 0 8 7 15 16 15 8 0 12 5 9 10 -5 8 -11 7
-21 -1 -10 -8 -14 -8 -14 0 0 6 -5 11 -11 11 -8 0 -9 -4 0 -13z M1170 1373 c0 -6 11 -19 25 -29 28 -21 32 -34 10 -34 -8 0 -15 -4
-15 -10 0 -13 17 -13 25 0 4 6 10 8 15 5 5 -3 11 -1 15 5 6 10 -17 40 -31 40
-4 0 -16 7 -26 17 -10 9 -18 12 -18 6z M1320 1366 c0 -4 -7 -6 -15 -3 -8 4 -17 2 -20 -3 -3 -5 -12 -7 -20
-3 -8 3 -15 1 -15 -4 0 -17 13 -23 26 -12 8 6 21 9 29 5 8 -3 15 -1 15 5 0 6
10 9 22 7 11 -2 23 2 25 7 1 6 -8 10 -22 10 -14 0 -25 -4 -25 -9z M1395 1369 c-10 -15 3 -25 16 -12 7 7 7 13 1 17 -6 3 -14 1 -17 -5z M280 1361 c0 -6 4 -12 10 -16 5 -3 7 -12 3 -20 -3 -8 0 -15 5 -15 19
0 23 18 8 33 -8 8 -12 17 -9 21 4 3 1 6 -5 6 -7 0 -12 -4 -12 -9z M236 1341 c-14 -5 -16 -10 -8 -15 7 -4 19 0 28 8 17 17 11 19 -20 7z M1128 1343 c-20 -5 -24 -18 -9 -28 6 -3 15 4 21 15 6 11 9 19 8 19
-2 -1 -11 -3 -20 -6z M1160 1325 c0 -8 5 -15 10 -15 6 0 10 7 10 15 0 8 -4 15 -10 15 -5 0
-10 -7 -10 -15z M1345 1331 c-90 -15 -185 -109 -200 -199 -13 -74 -18 -97 -24 -102
-3 -3 -14 -21 -25 -40 -39 -76 -132 -121 -237 -116 -116 6 -177 48 -234 160
-42 81 -68 109 -128 136 -96 44 -237 10 -310 -73 -29 -34 -97 -163 -97 -185 0
-7 -7 -15 -15 -18 -8 -4 -15 -12 -15 -19 0 -6 -13 -22 -30 -35 l-30 -23 0
-140 0 -140 23 21 c23 23 51 71 91 165 15 34 31 57 40 57 21 0 21 -26 0 -34
-8 -3 -13 -10 -9 -15 3 -5 1 -12 -5 -16 -20 -12 -10 -25 15 -19 31 8 32 -4 5
-51 -20 -35 -20 -35 0 -55 10 -10 22 -15 25 -11 2 5 -2 14 -10 21 -12 10 -11
16 6 43 22 38 25 67 5 67 -23 0 -28 17 -11 33 20 20 19 34 -2 45 -15 9 -13 13
14 41 17 17 36 31 42 31 6 0 11 3 11 8 0 20 158 68 174 52 15 -15 -5 -32 -30
-26 -24 6 -30 -4 -24 -44 2 -18 0 -16 28 -24 16 -6 22 -3 22 8 0 9 -6 13 -14
10 -16 -6 -30 11 -21 26 5 8 12 7 23 -2 12 -10 16 -10 19 -1 3 8 14 11 30 7
19 -5 24 -3 21 7 -3 8 -12 13 -22 11 -10 -2 -16 4 -16 18 0 16 4 19 18 12 9
-5 22 -7 29 -5 6 2 14 -1 18 -6 3 -6 15 -11 26 -11 10 0 19 -4 19 -10 0 -5 6
-10 13 -10 23 0 74 -63 106 -131 46 -97 117 -159 204 -174 36 -7 41 -13 38
-47 -3 -24 54 -25 63 -2 9 23 7 34 -4 34 -5 0 -10 -9 -10 -20 0 -29 -27 -25
-32 5 -4 18 -1 25 11 25 9 0 33 3 54 6 21 4 37 3 36 -2 -4 -21 2 -34 21 -44
16 -9 20 -8 20 5 0 8 -6 15 -14 15 -26 0 -27 40 0 50 26 10 104 88 104 105 0
6 6 22 14 36 7 14 19 56 26 92 8 37 17 67 22 67 4 0 8 9 8 20 0 12 22 42 50
69 119 116 310 105 415 -23 40 -49 45 -71 15 -61 -14 5 -20 2 -20 -9 0 -9 -4
-16 -10 -16 -5 0 -10 5 -10 11 0 32 -58 51 -68 21 -3 -9 3 -11 22 -6 20 5 26
2 26 -10 0 -9 4 -16 9 -16 5 0 11 -10 13 -22 2 -12 14 -28 28 -35 14 -7 24
-17 23 -22 -1 -5 4 -12 12 -15 18 -7 19 6 3 22 -10 10 -10 15 2 22 8 5 11 12
7 17 -5 4 -12 1 -16 -6 -9 -14 -43 -12 -48 4 -5 16 17 43 24 28 8 -20 23 -15
23 7 0 11 7 20 15 20 12 0 15 17 15 89 0 82 -2 90 -27 117 -16 16 -39 44 -53
63 -77 103 -125 141 -202 159 -50 13 -61 13 -123 3z M1602 1329 c2 -7 10 -15 17 -17 8 -3 12 1 9 9 -2 7 -10 15 -17 17 -8
3 -12 -1 -9 -9z M1646 1317 c-9 -34 -7 -40 9 -27 8 7 12 17 8 22 -3 6 0 9 8 6 8 -3
14 -11 14 -18 0 -7 5 -15 12 -17 22 -8 2 34 -22 45 -20 9 -24 8 -29 -11z M482 1321 c4 -13 18 -16 19 -4 0 4 -5 9 -11 12 -7 2 -11 -2 -8 -8z M540 1320 c0 -5 7 -10 15 -10 8 0 15 5 15 10 0 6 -7 10 -15 10 -8 0
-15 -4 -15 -10z M1575 1306 c31 -27 45 -32 45 -18 0 5 -12 15 -27 23 -46 22 -49 21
-18 -5z M250 1300 c0 -5 7 -10 15 -10 8 0 15 5 15 10 0 6 -7 10 -15 10 -8 0
-15 -4 -15 -10z M318 1293 c-10 -2 -18 -9 -18 -14 0 -12 3 -12 36 6 28 14 19 18 -18
8z M516 1292 c-9 -15 37 -37 58 -29 9 4 16 14 16 24 -1 17 -1 17 -14 1
-16 -22 -25 -23 -41 -1 -8 11 -14 13 -19 5z M1110 1286 c0 -9 8 -12 25 -8 18 3 25 0 25 -12 0 -9 -7 -16 -15 -16
-8 0 -15 -4 -15 -10 0 -13 17 -13 25 0 4 6 11 8 16 4 6 -3 8 6 6 22 -3 22 -9
28 -35 30 -22 3 -32 0 -32 -10z M220 1270 c0 -5 9 -10 19 -10 10 0 21 -7 25 -15 6 -16 26 -21 26 -6
0 16 -31 41 -51 41 -10 0 -19 -4 -19 -10z M1660 1270 c0 -5 6 -10 14 -10 8 0 16 -7 20 -15 6 -16 46 -21 46 -5
0 5 -6 7 -13 4 -7 -2 -22 4 -32 16 -20 22 -35 26 -35 10z M424 1261 c3 -5 15 -7 26 -4 28 7 25 13 -6 13 -14 0 -23 -4 -20 -9z M1620 1260 c0 -6 7 -13 15 -16 8 -4 13 -9 10 -14 -2 -4 7 -13 21 -20
13 -8 22 -20 20 -27 -3 -7 1 -13 9 -13 25 0 17 18 -25 60 -42 42 -50 47 -50
30z M188 1243 c-11 -14 -10 -15 10 -9 17 6 22 3 22 -9 0 -13 -6 -16 -21
-12 -28 8 -80 -3 -73 -14 3 -5 17 -6 32 -3 26 6 26 6 7 -10 -17 -13 -18 -17
-5 -25 12 -9 12 -11 -3 -17 -23 -8 -22 -20 3 -27 16 -4 19 -1 16 24 -4 31 33
76 41 52 5 -15 53 -18 53 -3 0 6 -10 10 -22 11 -13 0 -17 3 -10 6 20 8 14 29
-12 41 -20 9 -27 8 -38 -5z M520 1240 c-12 -8 -11 -10 8 -10 12 0 22 5 22 10 0 13 -11 13 -30 0z M590 1240 c0 -5 7 -10 15 -10 8 0 15 5 15 10 0 6 -7 10 -15 10 -8 0
-15 -4 -15 -10z M396 1233 c-11 -11 -6 -23 9 -23 8 0 15 4 15 9 0 13 -16 22 -24 14z M430 1225 c0 -8 5 -15 10 -15 6 0 10 7 10 15 0 8 -4 15 -10 15 -5 0
-10 -7 -10 -15z M1078 1213 c-20 -5 -24 -23 -5 -23 17 0 41 17 31 22 -5 2 -17 3 -26
1z M600 1190 c0 -21 33 -60 50 -60 16 0 12 11 -12 31 -21 19 -21 20 -2
34 18 14 18 14 -8 15 -21 0 -28 -5 -28 -20z M540 1184 c0 -13 61 -65 70 -59 10 6 -20 44 -31 38 -4 -1 -9 4 -13
12 -5 14 -26 22 -26 9z M650 1181 c0 -5 7 -12 16 -15 24 -9 27 -7 10 9 -17 17 -26 19 -26 6z M1116 1183 c-11 -11 -6 -23 9 -23 8 0 15 4 15 9 0 13 -16 22 -24 14z M116 1172 c-3 -6 -1 -14 5 -17 15 -10 25 3 12 16 -7 7 -13 7 -17 1z M195 1161 c-6 -11 9 -23 19 -14 9 9 7 23 -3 23 -6 0 -12 -4 -16 -9z M1065 1159 c-4 -6 -5 -13 -2 -16 7 -7 27 6 27 18 0 12 -17 12 -25 -2z M999 1139 c-9 -17 -13 -19 -20 -8 -4 7 -11 10 -14 7 -8 -7 2 -28 13
-28 17 1 54 38 44 44 -6 4 -16 -3 -23 -15z M1102 1138 c5 -15 28 -23 28 -10 0 5 -7 13 -16 16 -10 4 -14 1 -12
-6z M100 1131 c-18 -5 -21 -9 -11 -15 8 -5 19 -2 29 8 9 9 14 16 12 15
-3 -1 -16 -4 -30 -8z M1045 1120 c-4 -6 0 -17 8 -25 11 -11 16 -11 20 -2 6 16 -20 41 -28
27z M620 1102 c-15 -17 -4 -30 12 -14 19 19 45 14 63 -14 9 -14 19 -23
22 -20 3 2 -4 18 -16 34 -22 32 -58 38 -81 14z M906 1105 c-11 -8 -16 -18 -11 -22 4 -5 10 -3 12 3 2 7 14 9 26 7 28
-7 58 -33 51 -44 -3 -5 0 -9 6 -9 7 0 9 7 6 16 -3 9 -6 20 -6 25 0 6 -4 8 -8
5 -5 -3 -16 4 -25 15 -20 23 -26 23 -51 4z M845 1100 c-8 -13 15 -24 27 -12 6 6 4 11 -6 15 -8 3 -18 2 -21 -3z M1007 1103 c-11 -11 -8 -23 6 -23 8 0 14 7 14 15 0 16 -9 19 -20 8z M1092 1099 c2 -7 10 -15 17 -17 8 -3 12 1 9 9 -2 7 -10 15 -17 17 -8
3 -12 -1 -9 -9z M72 1093 c-12 -2 -20 -8 -17 -13 6 -10 45 -1 45 11 0 5 -1 8 -2 8 -2
-1 -13 -4 -26 -6z M645 1059 c-4 -6 -5 -13 -2 -16 7 -7 27 6 27 18 0 12 -17 12 -25 -2z M890 1056 c0 -9 7 -16 16 -16 17 0 14 22 -4 28 -7 2 -12 -3 -12 -12z M847 1054 c-8 -8 1 -24 14 -24 5 0 9 7 9 15 0 15 -12 20 -23 9z M1397 1043 c-10 -9 -9 -53 1 -53 5 0 9 14 10 30 1 32 -1 34 -11 23z M1430 1036 c0 -17 14 -29 23 -20 8 8 -3 34 -14 34 -5 0 -9 -6 -9 -14z M1477 1036 c-3 -8 1 -17 9 -20 9 -4 14 1 14 14 0 23 -15 27 -23 6z M680 1029 c-13 -9 -13 -10 2 -6 20 7 73 -36 64 -52 -10 -16 -26 -13
-33 7 -8 20 -23 32 -40 32 -21 0 -15 -17 8 -23 11 -3 23 -15 26 -26 3 -11 10
-18 16 -14 5 3 16 -2 23 -12 8 -10 17 -15 21 -10 5 4 2 10 -4 12 -10 3 -10 10
-2 24 8 16 13 18 25 8 16 -13 30 -6 19 10 -3 6 -17 11 -31 11 -15 0 -24 6 -24
15 0 8 -7 15 -15 15 -8 0 -15 5 -15 10 0 13 -21 13 -40 -1z M0 1021 c0 -5 6 -11 13 -14 9 -3 9 -7 -2 -20 -10 -13 -10 -17 -1 -17
7 0 10 -7 6 -15 -3 -9 0 -15 9 -15 17 0 20 16 5 25 -8 5 -7 11 1 21 15 19 35
18 43 -3 5 -12 9 -14 18 -5 17 17 -17 40 -48 34 -14 -2 -24 0 -24 7 0 6 -4 11
-10 11 -5 0 -10 -4 -10 -9z M796 1022 c-3 -6 -1 -14 5 -17 15 -10 25 3 12 16 -7 7 -13 7 -17 1z M935 1019 c-9 -14 4 -27 13 -13 4 6 14 14 22 17 10 4 8 6 -7 6 -12 1
-25 -4 -28 -10z M1001 1014 c-21 -24 -5 -28 20 -5 16 14 18 21 8 21 -8 -1 -20 -8 -28
-16z M1520 1020 c0 -5 7 -10 15 -10 8 0 15 5 15 10 0 6 -7 10 -15 10 -8 0
-15 -4 -15 -10z M833 1008 c-5 -9 -1 -10 27 -10 46 0 60 2 60 11 0 11 -80 9 -87 -1z M1350 1005 c0 -8 5 -15 10 -15 6 0 10 7 10 15 0 8 -4 15 -10 15 -5 0
-10 -7 -10 -15z M1570 1005 c0 -9 6 -12 15 -9 8 4 15 10 15 15 0 5 -7 9 -15 9 -8 0
-15 -7 -15 -15z M1040 1000 c0 -5 9 -10 21 -10 11 0 17 5 14 10 -3 6 -13 10 -21 10
-8 0 -14 -4 -14 -10z M1433 989 c-5 -5 -23 -11 -39 -13 -15 -2 -30 -8 -32 -15 -2 -6 -10
-11 -18 -11 -8 0 -14 -4 -14 -10 0 -5 -7 -10 -15 -10 -9 0 -12 -6 -9 -15 4 -9
-1 -18 -11 -21 -9 -4 -14 -13 -11 -21 3 -7 -1 -16 -9 -19 -8 -4 -12 -10 -9
-15 8 -13 43 13 37 28 -12 31 27 22 66 -16 46 -44 56 -48 64 -27 4 9 0 12 -13
9 -12 -3 -20 2 -25 16 -3 12 -10 19 -15 16 -5 -3 -14 4 -20 15 -6 11 -17 20
-25 20 -18 0 -20 16 -3 26 6 4 16 0 23 -9 7 -10 20 -17 29 -17 9 0 16 -6 16
-14 0 -15 37 -29 45 -16 3 4 14 6 25 3 11 -3 20 0 20 6 0 6 7 11 15 11 16 0
21 -35 6 -45 -6 -3 -8 -14 -6 -24 3 -16 -4 -21 -38 -26 -106 -18 -199 -113
-220 -223 -6 -30 -20 -67 -50 -129 -25 -53 -102 -110 -171 -127 -51 -12 -19
-19 86 -18 57 1 122 2 146 2 30 0 42 4 42 15 0 18 36 20 43 3 4 -10 8 -10 16
1 8 12 14 13 36 3 32 -15 35 -15 35 -2 0 6 -9 10 -19 10 -12 0 -21 8 -23 22
-4 29 -25 35 -24 7 1 -25 -12 -33 -33 -20 -11 7 -8 16 15 45 34 43 42 44 50
11 7 -29 19 -32 28 -9 4 10 14 14 25 11 10 -2 23 3 29 14 15 23 15 29 2 29 -5
0 -10 -7 -10 -16 0 -13 -3 -14 -15 -4 -12 10 -16 9 -21 -4 -9 -23 -34 -20 -34
4 0 11 7 20 15 20 8 0 15 5 15 10 0 6 8 10 18 10 10 0 22 3 26 7 3 4 14 8 24
9 9 1 38 5 64 8 27 4 49 3 52 -3 4 -6 12 -8 19 -5 7 2 30 -2 50 -11 20 -8 38
-15 41 -15 13 0 26 73 26 144 0 80 -1 82 -35 118 -39 40 -101 73 -158 83 -36
7 -49 27 -26 40 6 4 8 13 6 19 -9 24 12 43 26 25 6 -9 18 -14 25 -12 18 7 14
20 -8 26 -12 3 -18 11 -15 19 3 7 -6 18 -20 25 -20 9 -25 8 -25 -3 0 -8 7 -14
15 -14 8 0 15 -5 15 -11 0 -6 -10 -9 -22 -8 -13 1 -41 -3 -63 -9 -36 -11 -42
-10 -57 8 -9 11 -23 20 -32 20 -9 0 -16 7 -16 15 0 14 7 17 52 19 10 1 18 5
17 10 0 4 8 14 18 22 10 7 13 14 8 14 -6 0 -16 -5 -22 -11z M1472 991 c2 -7 7 -12 11 -12 12 1 9 15 -3 20 -7 2 -11 -2 -8 -8z M952 979 c2 -7 10 -15 17 -17 8 -3 12 1 9 9 -2 7 -10 15 -17 17 -8 3
-12 -1 -9 -9z M1600 980 c0 -5 6 -10 13 -10 7 0 23 -11 35 -25 25 -28 42 -32 42
-10 0 8 -8 15 -19 15 -10 0 -21 9 -24 20 -5 20 -47 29 -47 10z M832 961 c12 -19 47 -35 57 -25 3 3 -4 7 -16 10 -12 3 -24 12 -27 20
-3 8 -10 14 -16 14 -6 0 -6 -7 2 -19z M1550 975 c0 -13 42 -45 52 -39 7 4 2 14 -13 25 -24 18 -39 24 -39
14z M57 953 c-12 -11 -8 -23 8 -23 8 0 15 7 15 15 0 16 -12 20 -23 8z M1470 941 c0 -10 7 -21 15 -24 23 -9 26 8 4 26 -18 16 -19 16 -19 -2z M782 939 c2 -7 10 -15 17 -17 8 -3 12 1 9 9 -2 7 -10 15 -17 17 -8 3
-12 -1 -9 -9z M1260 934 c0 -17 22 -14 28 4 2 7 -3 12 -12 12 -9 0 -16 -7 -16 -16z M920 916 c0 -31 6 -34 13 -6 3 11 1 23 -4 26 -5 3 -9 -6 -9 -20z M1422 929 c2 -7 10 -15 17 -17 8 -3 12 1 9 9 -2 7 -10 15 -17 17 -8
3 -12 -1 -9 -9z M826 914 c-9 -24 -7 -28 9 -14 17 14 20 30 6 30 -5 0 -12 -7 -15 -16z M25 896 c-15 -15 -23 -31 -19 -38 6 -9 9 -8 12 2 2 8 14 23 26 32 11
9 18 20 14 23 -4 4 -19 -5 -33 -19z M870 905 c0 -8 5 -15 10 -15 6 0 10 7 10 15 0 8 -4 15 -10 15 -5 0
-10 -7 -10 -15z M1237 904 c-4 -4 -4 -10 -1 -15 6 -10 34 0 34 12 0 10 -24 12 -33 3z M316 875 c-3 -8 -12 -12 -21 -9 -8 3 -15 2 -15 -4 0 -5 7 -12 15 -16
25 -9 18 -36 -10 -36 -14 0 -25 -6 -25 -13 0 -14 -35 -47 -50 -47 -6 0 -10 -7
-10 -15 0 -8 6 -12 14 -9 21 8 32 -17 13 -31 -12 -9 -14 -14 -5 -23 9 -9 8
-12 -4 -12 -21 0 -30 -48 -11 -58 11 -7 5 -18 -27 -53 -22 -24 -43 -53 -46
-64 -4 -11 -9 -22 -13 -25 -7 -6 -42 -100 -45 -119 -4 -39 132 -56 199 -24 34
16 36 16 51 -3 15 -19 15 -19 9 2 -7 26 3 30 75 33 63 2 116 -11 112 -28 -1
-6 2 -11 8 -11 5 0 10 5 10 11 0 7 10 5 25 -5 19 -13 53 -16 170 -16 l145 0 0
25 c0 14 4 25 10 25 5 0 7 7 3 16 -6 16 15 37 29 28 4 -3 6 -24 4 -47 -2 -23
-2 -32 1 -19 2 12 8 22 13 22 5 0 7 7 4 15 -4 8 -1 21 5 29 9 10 5 13 -20 14
-17 0 -44 4 -60 7 -18 4 -29 3 -29 -4 0 -6 10 -11 21 -11 17 0 20 -4 15 -22
-3 -13 -6 -31 -6 -42 0 -28 -59 -15 -115 25 -46 33 -56 53 -31 62 19 7 40 -18
32 -38 -7 -18 10 -20 18 -2 5 9 7 9 12 0 9 -21 21 -15 20 9 -1 15 7 27 22 33
13 5 25 20 29 33 3 12 8 22 12 22 3 0 7 18 7 40 1 45 -1 47 -24 23 -12 -12
-13 -18 -4 -21 15 -5 16 -32 1 -32 -6 0 -9 -6 -6 -14 6 -16 -11 -36 -30 -36
-7 0 -13 7 -13 15 0 22 -28 18 -35 -6 -6 -17 -9 -18 -22 -7 -12 10 -18 9 -29
-7 -14 -18 -14 -18 -29 1 -8 10 -15 22 -15 27 0 14 -54 91 -85 122 -27 28 -94
67 -120 70 -5 1 -16 3 -22 3 -7 1 -13 9 -13 18 0 13 8 14 46 8 33 -5 45 -3 40
4 -4 6 -14 8 -22 5 -14 -5 -15 -1 -9 27 5 21 4 30 -3 26 -15 -9 -26 14 -13 27
16 16 14 27 -4 21 -8 -4 -22 -1 -30 6 -14 12 -55 5 -55 -10 0 -4 14 -7 31 -6
18 0 34 -4 36 -10 5 -14 -32 -25 -44 -13 -6 6 -24 3 -46 -6 -65 -27 -84 -9
-22 21 20 9 34 19 31 21 -2 3 -14 -1 -26 -7 -26 -14 -35 -7 -25 17 5 10 7 25
6 35 -1 9 3 19 9 23 5 3 10 10 10 16 0 14 -17 11 -24 -6z m-16 -94 c0 -14 -18
-23 -30 -16 -6 4 -8 11 -5 16 8 12 35 12 35 0z m-23 -35 c11 -18 53 -31 53
-16 0 7 8 10 20 7 11 -3 23 -1 26 4 10 17 34 9 34 -12 0 -18 -4 -20 -25 -15
-22 6 -25 3 -23 -19 3 -29 7 -31 23 -8 13 18 35 10 35 -13 0 -9 -10 -14 -30
-14 -36 0 -140 -38 -140 -51 0 -16 -28 -10 -34 8 -9 23 9 39 27 24 12 -9 16
-8 20 8 3 14 1 18 -10 14 -11 -4 -14 0 -11 17 4 32 26 37 36 9 5 -13 11 -18
15 -12 8 12 -13 37 -44 54 -11 5 -17 14 -14 20 9 13 33 11 42 -5z m193 -15 c0
-5 -7 -14 -15 -21 -18 -15 -42 1 -31 19 8 13 46 15 46 2z m330 -306 c0 -8 -5
-17 -11 -21 -16 -9 -30 18 -17 33 12 15 28 8 28 -12z M314 685 c-9 -35 0 -41 14 -10 7 14 8 27 2 30 -5 3 -12 -6 -16 -20z M485 870 c-3 -5 1 -12 9 -15 9 -3 23 -7 31 -10 9 -2 15 2 15 11 0 8
-5 12 -10 9 -6 -4 -17 -2 -25 5 -9 7 -15 8 -20 0z M1220 860 c0 -5 7 -10 15 -10 8 0 15 5 15 10 0 6 -7 10 -15 10 -8 0
-15 -4 -15 -10z M1612 858 c6 -18 28 -21 28 -4 0 9 -7 16 -16 16 -9 0 -14 -5 -12 -12z M425 841 c-6 -11 9 -23 19 -14 9 9 7 23 -3 23 -6 0 -12 -4 -16 -9z M551 831 c-12 -12 -29 -21 -38 -22 -15 0 -14 -2 4 -11 13 -6 25 -19
28 -29 4 -11 11 -19 16 -19 14 0 11 11 -8 32 -17 19 -16 20 7 38 14 10 22 22
18 25 -3 4 -16 -3 -27 -14z M1322 838 c6 -18 28 -21 28 -4 0 9 -7 16 -16 16 -9 0 -14 -5 -12 -12z M1451 843 c0 -5 4 -17 8 -28 7 -17 8 -17 13 8 4 19 1 27 -8 27 -8 0
-14 -3 -13 -7z M1550 830 c0 -11 4 -20 9 -20 11 0 22 26 14 34 -12 12 -23 5 -23 -14z M470 830 c0 -5 7 -10 15 -10 8 0 15 5 15 10 0 6 -7 10 -15 10 -8 0
-15 -4 -15 -10z M1217 833 c-7 -11 10 -40 18 -31 4 4 3 14 -3 24 -5 9 -12 12 -15 7z M1596 832 c-13 -12 -5 -22 19 -22 14 0 25 4 25 9 0 10 -36 21 -44 13z M205 807 c-4 -10 -5 -21 -1 -24 10 -10 18 4 13 24 -4 17 -4 17 -12 0z M1260 809 c0 -5 9 -9 20 -9 11 0 22 0 25 0 19 0 5 13 -17 16 -16 1
-28 -2 -28 -7z M572 798 c6 -18 25 -20 31 -3 5 10 0 15 -14 15 -12 0 -19 -5 -17 -12z M1322 779 c2 -7 10 -15 17 -17 8 -3 12 1 9 9 -2 7 -10 15 -17 17 -8
3 -12 -1 -9 -9z M1203 765 c-11 -12 -7 -15 22 -21 33 -6 46 -26 25 -39 -15 -9 -12
-25 4 -19 8 3 16 14 19 25 3 10 12 19 21 19 9 0 16 5 16 11 0 5 -8 9 -17 8
-31 -3 -36 1 -23 16 15 18 -1 20 -19 3 -11 -10 -14 -10 -18 0 -6 16 -15 15
-30 -3z M1690 770 c0 -5 5 -10 10 -10 6 0 10 -7 10 -15 0 -8 7 -15 15 -15 20
0 19 13 -3 33 -21 19 -32 22 -32 7z M600 761 c0 -14 18 -23 31 -15 8 4 7 9 -2 15 -18 11 -29 11 -29 0z M580 730 c0 -5 7 -10 15 -10 8 0 15 5 15 10 0 6 -7 10 -15 10 -8 0
-15 -4 -15 -10z M1180 721 c0 -12 29 -35 36 -28 4 3 -1 13 -9 22 -17 17 -27 19 -27 6z M560 702 c0 -5 11 -14 25 -20 30 -14 33 -32 5 -32 -11 0 -20 -5 -20
-11 0 -6 7 -9 15 -5 10 3 15 -1 15 -13 0 -10 7 -21 15 -25 8 -3 12 -12 9 -19
-3 -9 3 -17 18 -20 32 -8 63 -2 63 12 0 6 7 16 15 21 8 5 12 12 8 15 -4 4 -16
-4 -28 -18 -24 -27 -71 -28 -49 -1 6 8 15 11 20 8 5 -3 6 2 3 10 -4 11 0 16
10 16 9 0 16 5 16 10 0 6 -7 10 -15 10 -8 0 -17 14 -21 35 -5 31 -34 52 -34
25 0 -5 5 -10 11 -10 5 0 7 -5 4 -10 -4 -7 -19 -4 -41 10 -39 22 -44 24 -44
12z m110 -73 c0 -21 -39 -29 -49 -11 -9 16 -6 19 20 19 16 0 29 -4 29 -8z M1170 670 c6 -11 15 -18 21 -14 6 4 6 11 -2 20 -17 21 -31 17 -19 -6z M537 673 c-12 -12 -7 -22 8 -17 8 4 15 10 15 15 0 11 -14 12 -23 2z M1221 652 c-13 -25 -14 -32 -2 -32 9 0 23 41 16 48 -2 2 -8 -5 -14
-16z M100 640 c0 -5 5 -10 11 -10 7 0 9 -11 6 -26 -3 -17 -1 -22 6 -15 11
11 1 61 -13 61 -6 0 -10 -4 -10 -10z M1125 640 c3 -5 14 -10 25 -10 10 0 21 -7 24 -16 4 -9 9 -14 13 -10
10 10 -28 46 -49 46 -11 0 -16 -4 -13 -10z M79 578 c-12 -18 -34 -45 -47 -60 -21 -23 -23 -28 -9 -28 9 0 17 7
17 15 0 8 5 15 10 15 13 0 13 -17 0 -25 -6 -3 -10 -18 -10 -33 1 -26 1 -26 16
7 8 19 13 42 12 51 -2 9 4 27 13 41 26 40 30 49 25 49 -2 0 -15 -15 -27 -32z M1104 595 c-4 -10 -13 -13 -25 -10 -13 5 -19 1 -19 -10 0 -11 5 -15
15 -11 22 8 32 -24 11 -36 -15 -9 -15 -12 6 -34 26 -27 38 -30 38 -10 0 7 -10
16 -22 19 -18 5 -19 8 -8 22 12 14 15 14 31 -1 22 -20 38 -12 20 10 -10 11 -9
16 5 24 11 6 14 14 9 22 -6 10 -10 8 -16 -8 -9 -24 -33 -29 -45 -10 -4 6 0 16
9 23 19 14 22 25 7 25 -6 0 -13 -7 -16 -15z M1202 601 c4 -13 18 -16 19 -4 0 4 -5 9 -11 12 -7 2 -11 -2 -8 -8z M754 565 c21 -16 32 -13 21 4 -3 6 -14 11 -23 11 -15 -1 -15 -2 2
-15z M99 536 c9 -11 9 -15 -1 -19 -7 -2 -10 -8 -5 -12 4 -5 12 -4 17 1 12
12 3 44 -12 44 -6 0 -6 -6 1 -14z M720 540 c0 -5 7 -10 15 -10 8 0 15 5 15 10 0 6 -7 10 -15 10 -8 0
-15 -4 -15 -10z M790 540 c0 -5 9 -10 20 -10 11 0 20 5 20 10 0 6 -9 10 -20 10 -11 0
-20 -4 -20 -10z M1181 527 c-6 -6 -11 -21 -11 -34 0 -14 -6 -23 -16 -23 -10 0 -14 -6
-11 -14 3 -8 1 -17 -6 -19 -7 -2 -8 -8 -3 -13 5 -5 11 -3 14 5 3 8 14 24 26
36 12 12 20 28 18 37 -2 9 5 18 15 20 16 3 16 4 2 10 -9 4 -22 1 -28 -5z M660 519 c0 -5 7 -9 15 -9 8 0 15 -9 15 -19 0 -10 7 -21 15 -25 17
-6 21 9 5 19 -5 3 -10 14 -10 23 0 11 -8 18 -20 19 -11 1 -20 -2 -20 -8z M780 514 c0 -10 28 -34 41 -34 8 0 5 7 -6 20 -17 19 -35 26 -35 14z M740 494 c0 -17 22 -14 28 4 2 7 -3 12 -12 12 -9 0 -16 -7 -16 -16z M67 450 c-11 -27 -21 -38 -31 -34 -8 3 -13 11 -10 19 3 7 -2 15 -10
18 -11 4 -14 -1 -14 -23 1 -16 4 -29 7 -28 24 2 32 -4 26 -23 -6 -18 -5 -19
13 -8 12 7 20 15 20 18 0 4 1 9 2 14 5 15 8 27 9 43 0 8 6 12 11 9 6 -3 10 1
10 9 0 31 -16 23 -33 -14z M890 471 c-15 -29 -13 -38 11 -44 27 -7 49 1 49 19 0 12 -4 12 -20 2
-22 -14 -35 -6 -26 17 4 11 13 14 28 10 18 -5 20 -4 8 4 -22 16 -38 13 -50 -8z M1012 468 c21 -37 58 -61 58 -38 0 6 -7 10 -15 10 -8 0 -17 11 -21
25 -3 14 -12 25 -20 25 -12 0 -12 -4 -2 -22z M1092 448 c-14 -14 -16 -28 -3 -28 9 0 24 30 18 36 -2 2 -9 -2 -15
-8z M1555 450 c-3 -5 -2 -17 3 -26 8 -14 10 -14 15 5 5 22 -7 38 -18 21z M970 440 c0 -5 9 -10 20 -10 11 0 20 5 20 10 0 6 -9 10 -20 10 -11 0
-20 -4 -20 -10z M1509 443 c-1 -4 0 -23 1 -42 1 -28 -1 -33 -15 -27 -9 3 -23 0 -31
-8 -7 -8 -19 -16 -26 -19 -15 -5 17 -47 35 -47 6 0 3 8 -7 19 -17 18 -3 46 20
39 5 -1 19 3 31 10 16 9 24 9 29 1 7 -12 -12 -29 -32 -29 -14 0 -26 -25 -17
-34 11 -11 21 -6 26 13 4 16 12 19 51 16 39 -2 46 0 46 16 0 21 16 34 25 19 3
-5 11 -10 17 -10 7 0 7 4 0 13 -16 19 2 40 27 32 12 -4 21 -2 21 4 0 6 -7 11
-15 11 -8 0 -15 7 -15 16 0 12 -3 14 -13 6 -8 -7 -18 -7 -27 -2 -20 13 -40 12
-40 0 0 -5 11 -10 25 -10 16 0 25 -6 25 -15 0 -20 -30 -32 -40 -15 -6 9 -9 9
-15 0 -4 -6 -13 -9 -21 -6 -7 3 -16 1 -20 -5 -9 -16 -36 12 -31 33 3 10 1 21
-4 24 -5 3 -9 2 -10 -3z m99 -75 c-3 -7 -13 -13 -23 -13 -10 0 -20 6 -22 13
-3 7 5 12 22 12 17 0 25 -5 23 -12z M1014 405 c21 -16 15 -45 -9 -45 -9 0 -15 9 -15 25 0 47 -15 25 -17
-25 -1 -28 2 -50 7 -50 5 0 7 7 4 15 -8 20 25 32 37 14 7 -11 9 -10 9 5 0 14
6 17 24 14 17 -4 23 -1 19 8 -3 8 5 16 21 20 14 3 26 10 26 15 0 13 -9 11 -46
-12 l-34 -21 0 26 c0 20 -5 26 -22 26 -22 -1 -22 -1 -4 -15z M817 360 c-3 -11 -1 -20 4 -20 5 0 9 2 9 4 0 2 3 11 6 20 3 9 2 16
-4 16 -5 0 -12 -9 -15 -20z M366 331 c-5 -7 -3 -18 3 -24 14 -14 20 -6 11 17 -5 15 -9 16 -14 7z M405 310 c-4 -6 6 -10 22 -10 22 0 25 2 13 10 -19 12 -27 12 -35 0z M345 10 c-25 -5 10 -7 95 -7 98 0 123 2 90 8 -54 9 -130 9 -185 -1z"/>
</g>
</svg>
