<svg xmlns="http://www.w3.org/2000/svg" viewBox="0 0 100 100">
<g transform="translate(0,100) scale(0.4274,-0.4274)" fill="currentColor">
<path d="M2040 1563 c-18 -23 -21 -37 -17 -76 4 -45 1 -53 -41 -110 -107 -146
-214 -277 -227 -277 -8 0 -22 -11 -30 -24 -19 -29 -251 -240 -325 -297 -249
-187 -596 -171 -872 42 -75 59 -225 207 -254 252 -13 20 -30 37 -38 37 -7 0
-64 71 -126 158 l-112 157 5 -105 c4 -77 13 -130 35 -200 29 -92 29 -95 11
-104 -26 -12 -26 -12 -37 84 l-9 85 -2 -133 c-1 -127 0 -137 30 -210 205 -515
669 -791 1187 -707 354 58 672 354 782 728 13 43 27 80 32 83 11 7 10 52 -2
56 -6 2 -1 78 13 210 l24 207 36 40 c40 44 46 74 21 109 -21 30 -58 28 -84 -5z
m60 -37 c0 -14 -8 -32 -17 -41 -16 -16 -17 -16 -24 3 -11 30 0 62 22 62 13 0
19 -7 19 -24z m-1974 -478 c-28 -19 -35 -5 -102 232 -3 8 22 -39 54 -105 38
-79 55 -123 48 -127z m1816 210 c-10 -18 -39 -69 -62 -113 -24 -44 -44 -81
-45 -83 -5 -6 -35 11 -35 20 0 10 149 208 157 208 2 0 -4 -15 -15 -32z m-1808
-73 c36 -49 66 -92 66 -96 0 -7 -31 -22 -35 -17 -6 7 -107 213 -102 208 3 -3
35 -45 71 -95z m1818 -27 c-42 -132 -43 -132 -72 -123 -20 6 -18 12 42 125 34
66 63 118 65 117 1 -2 -15 -55 -35 -119z m59 26 c-22 -182 -20 -174 -47 -174
-16 0 -24 5 -21 13 3 6 20 67 38 134 19 67 35 120 37 118 2 -1 -2 -42 -7 -91z"/>
</g>
</svg>
