<svg xmlns="http://www.w3.org/2000/svg" viewBox="0 0 100 100">
<g transform="translate(0,100) scale(0.4274,-0.4274)" fill="currentColor">
<path d="M570 2298 c0 -26 14 -72 38 -127 22 -47 44 -98 50 -113 8 -18 19 -28
33 -28 23 0 79 54 79 75 0 8 4 16 9 19 5 3 7 -30 4 -78 -5 -69 -2 -97 17 -157
35 -116 26 -220 -34 -371 -57 -144 -76 -222 -76 -318 0 -71 -2 -77 -30 -104
-42 -39 -60 -76 -68 -144 l-7 -57 -19 48 c-10 27 -24 87 -30 135 l-12 87 -22
-35 c-93 -148 -12 -417 152 -505 40 -22 46 -35 16 -35 -29 0 -88 -56 -96 -92
-11 -54 28 -78 127 -78 63 0 79 -3 79 -15 0 -37 130 -67 206 -46 55 15 79 43
79 95 l0 41 81 1 82 1 -5 -36 c-10 -74 64 -118 180 -108 61 5 107 28 107 52 0
12 20 15 113 15 136 0 161 10 165 62 5 63 -52 118 -123 118 -15 0 -25 3 -23 8
2 4 22 44 46 89 165 321 101 588 -120 498 -16 -6 -18 -1 -18 42 0 66 -30 178
-74 281 -54 126 -66 265 -32 366 9 27 20 84 23 127 l6 79 22 -49 c20 -42 40
-61 64 -61 4 0 35 46 69 103 87 146 93 193 27 235 l-35 22 -525 0 -525 0 0
-42z"/>
</g>
</svg>
